<svg width="42" height="25" viewBox="0 0 42 25" fill="none" xmlns="http://www.w3.org/2000/svg">
<g clip-path="url(#clip0_324_10)">
<path d="M24.9911 17.764C24.9911 17.764 32.329 19.324 32.373 12.324C32.403 7.735 25.673 5.912 22.02 8.03C17.363 10.73 15.226 21.794 23.443 22.942C32.778 24.242 40.51 14.165 40.51 11.971C40.51 9.77698 32.868 0.999969 23.443 0.999969C17.274 0.999969 11.886 4.75496 8.88803 7.96896L2.9 3.439C2.72483 3.29417 2.51036 3.20493 2.28415 3.18277C2.05794 3.16061 1.83029 3.20652 1.63034 3.31461C1.4304 3.42269 1.26732 3.58806 1.16196 3.78946C1.0566 3.99085 1.01381 4.21909 1.03903 4.44498L2.69699 11.971L1.03806 19.497C1.01283 19.7229 1.05562 19.9512 1.16098 20.1526C1.26634 20.354 1.42942 20.5193 1.62937 20.6273C1.82931 20.7354 2.05697 20.7813 2.28318 20.7592C2.50938 20.737 2.72385 20.6478 2.89902 20.503L8.88706 15.974" stroke="white" stroke-width="2" stroke-miterlimit="10" stroke-linecap="round"/>
</g>
<defs>
<clipPath id="clip0_324_10">
<rect width="41.51" height="24.067" fill="white"/>
</clipPath>
</defs>
</svg>
