<svg width="64" height="64" viewBox="0 0 64 64" fill="none" xmlns="http://www.w3.org/2000/svg">
<path d="M27.3084 60.1175V32.1334L46.0569 13.9675H3L22.0916 32.1334V60.1175H14.4299L13.2102 64H35.7705L34.5507 60.1175H27.3084Z" fill="#FEB127"/>
<path d="M45.3437 6.58278e-07C41.9668 0.00449868 38.6943 1.17132 36.0763 3.30438C33.4583 5.43744 31.6544 8.40667 30.9678 11.7131H51.399L36.3642 26.2796C38.2106 27.709 40.3713 28.6772 42.667 29.1038C44.9628 29.5304 47.3272 29.403 49.5638 28.7323C51.8004 28.0615 53.8446 26.8667 55.5267 25.2472C57.2088 23.6276 58.4802 21.6301 59.2352 19.4205C59.9902 17.2109 60.207 14.853 59.8677 12.5428C59.5284 10.2326 58.6427 8.03664 57.2842 6.13746C55.9257 4.23829 54.1337 2.69068 52.0569 1.62322C49.9802 0.555768 47.6787 -0.00069864 45.3437 6.58278e-07V6.58278e-07Z" fill="#FEB127"/>
</svg>
