<svg xmlns="http://www.w3.org/2000/svg" width="22" height="22" fill="none" style=""><rect id="backgroundrect" width="100%" height="100%" x="0" y="0" fill="none" stroke="none"/>

<g class="currentLayer" style=""><title>Layer 1</title><path d="M20.628812403678893,1.9787640409469605 L16.491812403678892,1.0237640409469604 C16.273612403678893,0.9743440409469606 16.045012403678893,1.0025240409469605 15.845412403678893,1.1034540409469606 C15.645712403678894,1.2043840409469606 15.487412403678894,1.3717540409469606 15.397812403678895,1.5767640409469603 L13.487812403678895,6.032764040946961 C13.406312403678895,6.22309404094696 13.389012403678894,6.43482404094696 13.438612403678894,6.63584404094696 C13.488312403678894,6.83687404094696 13.602112403678895,7.016244040946961 13.762812403678893,7.146764040946961 L16.172812403678893,9.119764040946961 C14.713012403678894,12.216664040946961 12.220812403678893,14.708964040946961 9.123852403678894,16.16876404094696 L7.150852403678894,13.75876404094696 C7.020232403678894,13.59816404094696 6.840872403678894,13.48446404094696 6.639882403678894,13.43486404094696 C6.438892403678894,13.385164040946961 6.2272124036788945,13.40236404094696 6.036852403678894,13.48376404094696 L1.580852403678894,15.395764040946961 C1.3745024036788942,15.485664040946961 1.2059724036788941,15.64466404094696 1.1042924036788941,15.845464040946961 C1.002622403678894,16.046264040946962 0.9741724036788941,16.27626404094696 1.023852403678894,16.49576404094696 L1.9788524036788941,20.63276404094696 C2.027312403678894,20.84326404094696 2.145802403678894,21.031164040946962 2.314932403678894,21.16556404094696 C2.484052403678894,21.30006404094696 2.693812403678894,21.37306404094696 2.909852403678894,21.37276404094696 C5.334332403678894,21.37306404094696 7.735112403678894,20.89566404094696 9.975012403678894,19.96776404094696 C12.215012403678895,19.03996404094696 14.250112403678894,17.67996404094696 15.964312403678893,15.965464040946962 C17.678512403678894,14.250864040946961 19.038112403678895,12.21536404094696 19.965412403678894,9.97526404094696 C20.892712403678892,7.73512404094696 21.369612403678893,5.3342440409469605 21.368812403678895,2.9097640409469605 C21.369312403678894,2.6936740409469606 21.296312403678893,2.4838340409469604 21.161912403678894,2.3146740409469606 C21.027412403678895,2.1455040409469603 20.839512403678896,2.0270640409469607 20.628812403678893,1.9787640409469605 z" stroke="#000000" stroke-width="2" stroke-miterlimit="10" id="svg_1" class="selected" fill="#ffffff" fill-opacity="1" stroke-opacity="1"/></g></svg>