<svg id="Componente_8_1" data-name="Componente 8 – 1" xmlns="http://www.w3.org/2000/svg" width="149.589" height="15" viewBox="0 0 149.589 15">
  <defs>
    <style>
      .cls-1 {
        fill: #feb127;
      }

      .cls-2 {
        fill: none;
        stroke: #505452;
        stroke-miterlimit: 10;
        stroke-width: 2px;
      }
    </style>
  </defs>
  <rect id="Rectángulo_6488" data-name="Rectángulo 6488" class="cls-1" width="139" height="15"/>
  <path id="Trazado_136" data-name="Trazado 136" class="cls-2" d="M1263.042,3635.133c3.021,0,3.021,12,6.041,12s3.019-12,6.039-12,3.021,12,6.042,12,3.02-12,6.04-12,3.021,12,6.042,12,3.02-12,6.041-12,3.021,12,6.043,12,3.021-12,6.041-12,3.022,12,6.043,12,3.022-12,6.044-12,3.022,12,6.043,12,3.022-12,6.044-12,3.023,12,6.044,12,3.019-12,6.038-12,3.021,12,6.042,12,3.022-12,6.045-12,3.021,12,6.043,12,3.022-12,6.044-12,3.023,12,6.046,12,3.021-12,6.042-12,3.024,12,6.049,12,3.026-12,6.052-12,3.026,12,6.052,12" transform="translate(-1252.453 -3633.633)"/>
</svg>
