<svg id="Componente_26_1" data-name="Componente 26 – 1" xmlns="http://www.w3.org/2000/svg" width="155.346" height="147.6" viewBox="0 0 155.346 147.6">
  <defs>
    <style>
      .cls-1 {
        fill: #e6eef7;
      }
    </style>
  </defs>
  <path id="Trazado_40" data-name="Trazado 40" class="cls-1" d="M1045.972,4123.987c-5.785-.011-12.475.131-17.564,3.141-1.581,1-3.11,2.534-3.212,4.483l-.322-.314c4.325.082,8.665,0,12.986-.243,4.882-.371,20.637-1.126,21.888-6.659,1.022-2.563.88-4.969-1.88-6.2-5.054-2.21-13.505-1.307-19.013-.791-6.338.616-12.792,2.079-18.135,5.669a21.449,21.449,0,0,0-9.407,13.939,11.689,11.689,0,0,0-.174,1.494l-.912-.831,67.315-8.21-.918,1.434c-1.429-4.2-4.538-7.712-7.894-10.588-10.452-8.621-24.587-13.23-38.107-11.793a19,19,0,0,0-6.233,1.879c-6.061,3.064-10.665,8.3-14.608,13.8a112,112,0,0,0-12.68,24.4l-1.49-2c16.126-1,32.265-2.229,48.348-3.781,14-1.455,28.078-2.771,41.833-5.76a42.175,42.175,0,0,0,5.558-1.623,5.94,5.94,0,0,0,2.019-1.156,21.4,21.4,0,0,0,4.191-7.062,81.969,81.969,0,0,0,3.534-11.295c4.718-20.183,7.616-51.132.513-70.71-1.319-3.352-3.212-6.752-6.168-8.738-2.69-1.692-6.453-2.743-9.287-.979-12.218,8.074-9.521,51.387-7.757,65.236.7,4.521,1.7,9.723,4.935,13.056,2.743,2.763,6.221,1.42,8.36-1.5a15.179,15.179,0,0,0,2.791-7.818l.276-3.018c.356-4.019.662-8.034.742-12.041.038-2,.019-4-.1-5.988a23.313,23.313,0,0,0-1.789-8.525,5.7,5.7,0,0,0-1.645-2.078,4.31,4.31,0,0,0-4.882.089c-2.955,2.276-3.345,7.18-3.555,10.7a64.809,64.809,0,0,0,.741,12.033l-.4.075c-.391-2-.678-4.006-.892-6.028a55.9,55.9,0,0,1-.329-6.1,21.93,21.93,0,0,1,1.63-9.13,7.151,7.151,0,0,1,2.037-2.588,5.676,5.676,0,0,1,6.506-.257c1.875,1.324,2.742,3.468,3.36,5.539a48,48,0,0,1,1.323,12.278c.021,4.086-.188,8.153-.444,12.2a41.39,41.39,0,0,1-.65,6.221,14.788,14.788,0,0,1-4.979,8.438c-4.513,3.493-9.459,1.465-12.192-3.056-3.849-6.375-4.233-13.987-5-21.179-1.271-15.511-2.61-41.216,5.05-54.917,4.239-7.323,11.376-8.444,18.423-4.122,19.651,13.2,12.053,76.289,3.428,95.7-1.3,2.968-2.739,6.043-5.221,8.374a9.531,9.531,0,0,1-3.2,1.855,71.937,71.937,0,0,1-12.146,2.9c-28.074,4.4-56.463,6-84.791,7.749l-2.291.126.8-2.128a114.679,114.679,0,0,1,13.219-25c5.53-7.587,12.945-15.489,22.824-16.638a54.808,54.808,0,0,1,39.9,12.627c3.642,3.173,6.926,6.96,8.491,11.654l.419,1.282-1.337.152-67.382,7.645-.954.108.042-.939a21.529,21.529,0,0,1,5.352-12.221c5.914-6.813,15.2-9.408,23.864-10.115,5.28-.425,19.488-2.031,22.24,3.474.8,1.647.383,3.549-.241,5.162a7.128,7.128,0,0,1-.764,1.577,7.335,7.335,0,0,1-2.733,2.137,26.283,26.283,0,0,1-6.322,1.968c-8.6,1.6-17.341,1.7-26.05,1.517l-.323-.01c-.074-2.34,1.709-4.2,3.56-5.335a18.666,18.666,0,0,1,5.748-2.161,51.783,51.783,0,0,1,12.145-.879Z" transform="translate(-954.739 -4030.472)"/>
  <path id="Trazado_53" data-name="Trazado 53" class="cls-1" d="M1018.852,4084.555c5.785.012,12.475-.131,17.564-3.14,1.581-1,3.111-2.534,3.212-4.483l.322.314c-4.325-.082-8.665,0-12.986.243-4.882.371-20.637,1.125-21.888,6.658-1.022,2.563-.88,4.968,1.88,6.2,5.054,2.21,13.505,1.306,19.013.791,6.338-.616,12.792-2.08,18.135-5.67a21.443,21.443,0,0,0,9.407-13.939,11.646,11.646,0,0,0,.174-1.493l.912.831-67.315,8.21.918-1.434c1.429,4.2,4.538,7.711,7.894,10.588,10.452,8.62,24.587,13.23,38.107,11.793a18.982,18.982,0,0,0,6.233-1.88c6.061-3.064,10.665-8.3,14.608-13.8a111.987,111.987,0,0,0,12.68-24.4l1.49,2c-16.126,1-32.265,2.228-48.348,3.78-14,1.456-28.078,2.77-41.833,5.76a42.212,42.212,0,0,0-5.558,1.623,5.965,5.965,0,0,0-2.019,1.156,21.406,21.406,0,0,0-4.19,7.062,81.913,81.913,0,0,0-3.535,11.3c-4.718,20.183-7.616,51.131-.513,70.71,1.319,3.351,3.212,6.752,6.168,8.738,2.69,1.692,6.453,2.743,9.287.978,12.218-8.074,9.521-51.388,7.757-65.235-.7-4.521-1.7-9.724-4.935-13.058-2.743-2.762-6.221-1.418-8.36,1.505a15.175,15.175,0,0,0-2.791,7.817l-.276,3.019c-.356,4.019-.662,8.033-.742,12.041-.038,2-.019,4,.1,5.988a23.3,23.3,0,0,0,1.789,8.524,4.325,4.325,0,0,0,4.056,2.792c5.167-.238,5.8-7.485,6.026-11.5a64.822,64.822,0,0,0-.741-12.033l.4-.074c.391,2,.678,4.006.892,6.028a55.858,55.858,0,0,1,.329,6.1,21.933,21.933,0,0,1-1.63,9.131,7.146,7.146,0,0,1-2.037,2.587,5.675,5.675,0,0,1-6.506.258c-1.875-1.324-2.742-3.468-3.36-5.541a47.979,47.979,0,0,1-1.323-12.276c-.02-4.087.188-8.153.444-12.2a41.391,41.391,0,0,1,.65-6.22,14.788,14.788,0,0,1,4.979-8.438c4.513-3.493,9.459-1.466,12.192,3.055,3.849,6.375,4.233,13.988,5,21.18,1.271,15.511,2.611,41.215-5.05,54.917-4.238,7.323-11.376,8.444-18.423,4.121-19.651-13.2-12.053-76.288-3.428-95.7,1.3-2.968,2.739-6.042,5.221-8.374a9.532,9.532,0,0,1,3.2-1.855,71.956,71.956,0,0,1,12.146-2.9c28.074-4.4,56.463-6.005,84.791-7.749l2.291-.126-.8,2.128a114.661,114.661,0,0,1-13.219,25c-5.53,7.588-12.945,15.489-22.824,16.638a54.808,54.808,0,0,1-39.9-12.627c-3.642-3.172-6.926-6.959-8.491-11.653l-.419-1.283,1.337-.151,67.382-7.645.954-.108-.042.939a21.529,21.529,0,0,1-5.352,12.221c-5.914,6.813-15.2,9.407-23.865,10.115-5.279.425-19.487,2.031-22.239-3.475-.8-1.647-.382-3.548.241-5.161a7.087,7.087,0,0,1,.764-1.577,7.33,7.33,0,0,1,2.733-2.138,26.328,26.328,0,0,1,6.322-1.968c8.6-1.6,17.341-1.7,26.05-1.516l.323.01c.074,2.339-1.709,4.194-3.56,5.335a18.643,18.643,0,0,1-5.748,2.159,51.681,51.681,0,0,1-12.145.881Z" transform="translate(-954.739 -4030.472)"/>
</svg>
