<svg id="Componente_20_1" data-name="Componente 20 – 1" xmlns="http://www.w3.org/2000/svg" width="97.184" height="68.721" viewBox="0 0 97.184 68.721">
  <defs>
    <style>
      .cls-1 {
        fill: #393939;
      }
    </style>
  </defs>
  <path id="Trazado_15" data-name="Trazado 15" class="cls-1" d="M1106.615,6005.45c2.681.3,5.79.586,8.3-.546a2.851,2.851,0,0,0,1.722-1.911l.132.162c-2-.262-4.016-.449-6.031-.56-2.283-.081-9.625-.548-10.492,1.952-.606,1.135-.665,2.257.55,2.972,2.224,1.285,6.2,1.306,8.773,1.352a18.181,18.181,0,0,0,8.7-1.688,10,10,0,0,0,5.082-5.973,5.418,5.418,0,0,0,.159-.684l.379.433-31.628.317.5-.618a11.807,11.807,0,0,0,3.11,5.317,24.448,24.448,0,0,0,17.053,7.442,8.871,8.871,0,0,0,2.986-.548,19.736,19.736,0,0,0,7.487-5.641,52.171,52.171,0,0,0,7.142-10.651l.587,1c-7.527-.37-15.071-.639-22.607-.753a178.533,178.533,0,0,0-19.689.5,19.876,19.876,0,0,0-2.661.464,2.769,2.769,0,0,0-1,.432,9.972,9.972,0,0,0-2.308,3.056,38.263,38.263,0,0,0-2.224,5.053c-3.233,9.11-6.18,23.306-3.9,32.75a8.546,8.546,0,0,0,2.406,4.369c1.159.925,2.849,1.607,4.254.936,6.082-3.11,7.077-23.327,6.977-29.838-.091-2.135-.283-4.59-1.611-6.308-1.129-1.422-2.81-.98-3.953.264a7.088,7.088,0,0,0-1.7,3.48l-.284,1.384c-.373,1.845-.723,3.69-.968,5.543-.121.927-.216,1.855-.264,2.781a10.9,10.9,0,0,0,.388,4.044,2.647,2.647,0,0,0,.655,1.049,2.012,2.012,0,0,0,2.267.212c1.488-.9,1.923-3.156,2.2-4.774a30.214,30.214,0,0,0,.281-5.616l.19-.014c.078.947.107,1.892.1,2.841a26.048,26.048,0,0,1-.163,2.845,10.235,10.235,0,0,1-1.229,4.148,3.337,3.337,0,0,1-1.078,1.093,2.646,2.646,0,0,1-3.029-.218,4.587,4.587,0,0,1-1.271-2.742,22.381,22.381,0,0,1,.023-5.759c.2-1.9.51-3.77.838-5.633a19.3,19.3,0,0,1,.624-2.85,6.9,6.9,0,0,1,2.745-3.654c2.273-1.385,4.461-.188,5.493,2.049,1.454,3.154,1.238,6.7,1.22,10.076-.215,7.256-.926,19.24-5.187,25.195-2.344,3.175-5.711,3.324-8.753.955-8.425-7.137-1.634-35.987,3.37-44.537a11.407,11.407,0,0,1,2.854-3.611,4.462,4.462,0,0,1,1.581-.694,33.51,33.51,0,0,1,5.781-.715c13.241-.584,26.484.143,39.7.8l1.068.06-.481.945a53.525,53.525,0,0,1-7.423,10.905c-2.957,3.23-6.8,6.509-11.442,6.529a25.56,25.56,0,0,1-17.839-7.92,12.786,12.786,0,0,1-3.332-5.842l-.128-.617h.628l31.63-.051h.448l-.069.433a10.033,10.033,0,0,1-3.114,5.388c-3.932,3.613-9.622,3.677-14.637,3.332-2.005-.182-6.253-.469-7.078-2.643a3.039,3.039,0,0,1,.379-2.381,3.323,3.323,0,0,1,.436-.691,3.434,3.434,0,0,1,1.378-.849,12.268,12.268,0,0,1,3.033-.585,59.713,59.713,0,0,1,12.3.669,3.021,3.021,0,0,1-1.927,2.288,12.375,12.375,0,0,1-5.624.76c-.948-.048-1.89-.149-2.828-.278Z" transform="translate(-1035.092 -5977.845)"/>
  <path id="Trazado_16" data-name="Trazado 16" class="cls-1" d="M1084.871,5985.085c-1.407.072-3.48.291-4.424,1.447-1.066,1.533.945,2.839,2.226,3.3a5.526,5.526,0,0,0,4.585-.078,3.393,3.393,0,0,0,1.379-1.816c1.035-2.37,1.212-4.934-2.05-5.143a22.827,22.827,0,0,0-4.788.5c-2.011.416-6.44,1.445-6.689,3.887a3.331,3.331,0,0,0,1.62,2.77c3.989,2.7,11.637,3.211,16.332,2.492a13.7,13.7,0,0,0,2.3-.553,4.837,4.837,0,0,0,1.924-1.1c1.621-1.792,1.1-4.379-.2-6.22a14.536,14.536,0,0,0-7.65-5.248c-5.373-1.649-16.167,1.439-19.385,6.164a3.173,3.173,0,0,0-.441,2.947,14.126,14.126,0,0,0,3.357,4.734c.567.557,1.165,1.085,1.779,1.625.675.62,2.293,1.81,1.11,2.737a3.378,3.378,0,0,1-1.7.337l-1.229.013-2.443.023c-8.846.088-25.212.246-34.2.339l.748-1.1c.284.683.616,1.4.953,2.067,2.389,4.636,5.581,9.295,10.289,11.767a11.5,11.5,0,0,0,6.361,1.2c4.441-.272,9.039-1.454,12.592-4.208,1.6-1.265,3.355-3.459,2.207-5.5a2.022,2.022,0,0,0-.742-.623,7.6,7.6,0,0,0-1.945-.677,26.409,26.409,0,0,0-4.48-.516,112.193,112.193,0,0,0-18.53,1.27l.654-1.278c.041.08.1.189.154.285,1.756,3.043,4.325,5.923,7.621,7.24a9.284,9.284,0,0,0,3.951.643,23.009,23.009,0,0,0,4.135-.753,11.446,11.446,0,0,0,4.849-2.413c.947-.944,1.011-1.861-.439-2.14a24.375,24.375,0,0,0-4.231-.3c-3.86-.01-7.744.225-11.6.51l.246-.608c2.158,2.442,5.392,4.637,8.795,3.972a7.367,7.367,0,0,0,3.041-1.445l.121.148c-4.122,3.585-9.232,1.352-12.523-2.2l-.476-.527c4.12-.463,8.234-.843,12.384-.95.98-.02,1.962-.023,2.958.034a7.625,7.625,0,0,1,2.353.417,2.12,2.12,0,0,1,.839,3.341c-1.876,2.61-5.868,3.67-8.838,4.231-6.9,1.466-12.676-3.986-15.5-9.773,6.425-.987,21.871-3.159,27.413-.249a4.355,4.355,0,0,1,1.923,5.215,7.038,7.038,0,0,1-1.286,2.387c-3.6,4.311-10.156,6.086-15.562,6.345a13.328,13.328,0,0,1-7.275-1.474c-5.856-3.1-10.032-9.929-12.361-15.95,9.609-.015,25.924-.042,35.39-.062l2.443,0a11.54,11.54,0,0,0,2.2-.1c.016,0,.021-.01.005,0a.343.343,0,0,0-.1.118.407.407,0,0,0-.046.224.231.231,0,0,0,.012.058,6.993,6.993,0,0,0-1.094-1.11,20.382,20.382,0,0,1-4.881-5.705,5.626,5.626,0,0,1-.8-2.582c.053-2.758,2.528-4.693,4.664-6.011a26.1,26.1,0,0,1,14.355-3.567,13.438,13.438,0,0,1,4.84,1.4c3.567,1.679,7.738,5.371,7.032,9.72a4.617,4.617,0,0,1-3.473,3.674c-3.888,1.183-8.333.961-12.3.318-2.677-.515-6.019-1.311-7.932-3.4a3,3,0,0,1,.495-4.673c2.244-1.615,5.545-2.164,8.244-2.488,1.627-.145,3.555-.4,4.857.821,1.423,1.506.491,3.8-.262,5.4-1.452,3.021-6.309,2.179-8.261.111a1.8,1.8,0,0,1-.224-2.387,3.912,3.912,0,0,1,2.176-1.184,11.249,11.249,0,0,1,2.445-.3Z" transform="translate(-1035.092 -5977.845)"/>
</svg>
