<svg width="64" height="64" viewBox="0 0 64 64" fill="none" xmlns="http://www.w3.org/2000/svg">
<path d="M17.6514 10.144V4.22227C17.6514 3.10245 18.0962 2.02851 18.8881 1.23668C19.6799 0.444845 20.7539 0 21.8737 0C22.9935 0 24.0675 0.444845 24.8593 1.23668C25.6511 2.02851 26.096 3.10245 26.096 4.22227V10.144C26.0971 10.6992 25.9888 11.2492 25.7771 11.7625C25.5654 12.2758 25.2546 12.7423 24.8624 13.1353C24.4702 13.5283 24.0044 13.8401 23.4915 14.0528C22.9787 14.2655 22.4289 14.375 21.8737 14.375C21.3185 14.375 20.7687 14.2655 20.2558 14.0528C19.743 13.8401 19.2771 13.5283 18.885 13.1353C18.4928 12.7423 18.1819 12.2758 17.9702 11.7625C17.7586 11.2492 17.6502 10.6992 17.6514 10.144Z" fill="white"/>
<path d="M37.895 10.144V4.22228C37.895 3.66706 38.0046 3.11731 38.2173 2.60446C38.4301 2.09162 38.7418 1.62578 39.1348 1.23359C39.5278 0.841395 39.9943 0.530556 40.5076 0.318883C41.0209 0.107209 41.5709 -0.00114281 42.1261 9.08883e-06C43.246 9.08883e-06 44.3199 0.444854 45.1117 1.23669C45.9035 2.02852 46.3484 3.10246 46.3484 4.22228V10.144C46.3495 10.6992 46.2412 11.2492 46.0295 11.7625C45.8178 12.2758 45.507 12.7423 45.1148 13.1353C44.7226 13.5283 44.2568 13.8401 43.7439 14.0528C43.2311 14.2656 42.6814 14.375 42.1261 14.375C41.004 14.375 39.9277 13.9293 39.1343 13.1358C38.3408 12.3423 37.895 11.2661 37.895 10.144Z" fill="white"/>
<path fill-rule="evenodd" clip-rule="evenodd" d="M4.5902 10.5294H59.4098C61.9449 10.5294 64 12.5845 64 15.1196V59.3573C64 61.8924 61.9449 63.9475 59.4098 63.9475H4.5902C2.0551 63.9475 0 61.8924 0 59.3573V15.1196C0 12.5845 2.0551 10.5294 4.5902 10.5294ZM10.8185 30.1604H53.1727C54.0138 30.1604 54.8203 29.8263 55.415 29.2316C56.0097 28.6369 56.3438 27.8303 56.3438 26.9893C56.3438 26.1483 56.0097 25.3417 55.415 24.747C54.8203 24.1523 54.0138 23.8182 53.1727 23.8182H10.8185C9.97747 23.8182 9.17081 24.1523 8.57611 24.747C7.98142 25.3417 7.6474 26.1483 7.6474 26.9893C7.6474 27.8303 7.98142 28.6369 8.57611 29.2316C9.17081 29.8263 9.97747 30.1604 10.8185 30.1604ZM53.1727 42.0652H10.8185C9.97747 42.0652 9.17081 41.7311 8.57611 41.1364C7.98142 40.5417 7.6474 39.7351 7.6474 38.8941C7.6474 38.0531 7.98142 37.2465 8.57611 36.6518C9.17081 36.0571 9.97747 35.723 10.8185 35.723H53.1727C54.0138 35.723 54.8203 36.0571 55.415 36.6518C56.0097 37.2465 56.3438 38.0531 56.3438 38.8941C56.3438 39.7351 56.0097 40.5417 55.415 41.1364C54.8203 41.7311 54.0138 42.0652 53.1727 42.0652ZM10.8185 53.9436H53.1727C54.0122 53.9436 54.8175 53.6108 55.4119 53.018C56.0064 52.4252 56.3415 51.6208 56.3438 50.7813C56.3438 49.9403 56.0097 49.1337 55.415 48.539C54.8203 47.9443 54.0138 47.6102 53.1727 47.6102H10.8185C9.97747 47.6102 9.17081 47.9443 8.57611 48.539C7.98142 49.1337 7.6474 49.9403 7.6474 50.7813C7.64972 51.6208 7.98477 52.4252 8.57922 53.018C9.17366 53.6108 9.97898 53.9436 10.8185 53.9436Z" fill="white"/>
</svg>
