<svg width="492" height="129" viewBox="0 0 492 129" fill="none" xmlns="http://www.w3.org/2000/svg">
<g clip-path="url(#clip0_408_25)">
<path opacity="0.2" d="M52.2751 -0.00292969H49.4711V2.80107H52.2751V-0.00292969Z" fill="#899CAF"/>
<path opacity="0.2" d="M63.1331 -0.00292969H60.3291V2.80107H63.1331V-0.00292969Z" fill="#899CAF"/>
<path opacity="0.2" d="M73.991 -0.00292969H71.187V2.80107H73.991V-0.00292969Z" fill="#899CAF"/>
<path opacity="0.2" d="M84.8481 -0.00292969H82.0441V2.80107H84.8481V-0.00292969Z" fill="#899CAF"/>
<path opacity="0.2" d="M95.7061 -0.00292969H92.9021V2.80107H95.7061V-0.00292969Z" fill="#899CAF"/>
<path opacity="0.2" d="M106.564 -0.00292969H103.76V2.80107H106.564V-0.00292969Z" fill="#899CAF"/>
<path opacity="0.2" d="M117.422 -0.00292969H114.618V2.80107H117.422V-0.00292969Z" fill="#899CAF"/>
<path opacity="0.2" d="M128.279 -0.00292969H125.475V2.80107H128.279V-0.00292969Z" fill="#899CAF"/>
<path opacity="0.2" d="M139.137 -0.00292969H136.333V2.80107H139.137V-0.00292969Z" fill="#899CAF"/>
<path opacity="0.2" d="M149.995 -0.00292969H147.191V2.80107H149.995V-0.00292969Z" fill="#899CAF"/>
<path opacity="0.2" d="M160.852 -0.00292969H158.048V2.80107H160.852V-0.00292969Z" fill="#899CAF"/>
<path opacity="0.2" d="M171.71 -0.00292969H168.906V2.80107H171.71V-0.00292969Z" fill="#899CAF"/>
<path opacity="0.2" d="M182.568 -0.00292969H179.764V2.80107H182.568V-0.00292969Z" fill="#899CAF"/>
<path opacity="0.2" d="M193.426 -0.00292969H190.622V2.80107H193.426V-0.00292969Z" fill="#899CAF"/>
<path opacity="0.2" d="M204.283 -0.00292969H201.479V2.80107H204.283V-0.00292969Z" fill="#899CAF"/>
<path opacity="0.2" d="M215.141 -0.00292969H212.337V2.80107H215.141V-0.00292969Z" fill="#899CAF"/>
<path opacity="0.2" d="M225.999 -0.00292969H223.195V2.80107H225.999V-0.00292969Z" fill="#899CAF"/>
<path opacity="0.2" d="M236.856 -0.00292969H234.052V2.80107H236.856V-0.00292969Z" fill="#899CAF"/>
<path opacity="0.2" d="M247.714 -0.00292969H244.91V2.80107H247.714V-0.00292969Z" fill="#899CAF"/>
<path opacity="0.2" d="M258.572 -0.00292969H255.768V2.80107H258.572V-0.00292969Z" fill="#899CAF"/>
<path opacity="0.2" d="M269.43 -0.00292969H266.626V2.80107H269.43V-0.00292969Z" fill="#899CAF"/>
<path opacity="0.2" d="M280.287 -0.00292969H277.483V2.80107H280.287V-0.00292969Z" fill="#899CAF"/>
<path opacity="0.2" d="M291.145 -0.00292969H288.341V2.80107H291.145V-0.00292969Z" fill="#899CAF"/>
<path opacity="0.2" d="M302.003 -0.00292969H299.199V2.80107H302.003V-0.00292969Z" fill="#899CAF"/>
<path opacity="0.2" d="M312.86 -0.00292969H310.056V2.80107H312.86V-0.00292969Z" fill="#899CAF"/>
<path opacity="0.2" d="M323.718 -0.00292969H320.914V2.80107H323.718V-0.00292969Z" fill="#899CAF"/>
<path opacity="0.2" d="M334.576 -0.00292969H331.772V2.80107H334.576V-0.00292969Z" fill="#899CAF"/>
<path opacity="0.2" d="M345.433 -0.00292969H342.629V2.80107H345.433V-0.00292969Z" fill="#899CAF"/>
<path opacity="0.2" d="M356.291 -0.00292969H353.487V2.80107H356.291V-0.00292969Z" fill="#899CAF"/>
<path opacity="0.2" d="M367.149 -0.00292969H364.345V2.80107H367.149V-0.00292969Z" fill="#899CAF"/>
<path opacity="0.2" d="M378.007 -0.00292969H375.203V2.80107H378.007V-0.00292969Z" fill="#899CAF"/>
<path opacity="0.2" d="M388.864 -0.00292969H386.06V2.80107H388.864V-0.00292969Z" fill="#899CAF"/>
<path opacity="0.2" d="M399.722 -0.00292969H396.918V2.80107H399.722V-0.00292969Z" fill="#899CAF"/>
<path opacity="0.2" d="M410.58 -0.00292969H407.776V2.80107H410.58V-0.00292969Z" fill="#899CAF"/>
<path opacity="0.2" d="M421.437 -0.00292969H418.633V2.80107H421.437V-0.00292969Z" fill="#899CAF"/>
<path opacity="0.2" d="M432.295 -0.00292969H429.491V2.80107H432.295V-0.00292969Z" fill="#899CAF"/>
<path opacity="0.2" d="M443.153 -0.00292969H440.349V2.80107H443.153V-0.00292969Z" fill="#899CAF"/>
<path opacity="0.2" d="M52.2751 7.86011H49.4711V10.6641H52.2751V7.86011Z" fill="#899CAF"/>
<path opacity="0.2" d="M63.1331 7.86011H60.3291V10.6641H63.1331V7.86011Z" fill="#899CAF"/>
<path opacity="0.2" d="M73.991 7.86011H71.187V10.6641H73.991V7.86011Z" fill="#899CAF"/>
<path opacity="0.2" d="M84.8481 7.86011H82.0441V10.6641H84.8481V7.86011Z" fill="#899CAF"/>
<path opacity="0.2" d="M95.7061 7.86011H92.9021V10.6641H95.7061V7.86011Z" fill="#899CAF"/>
<path opacity="0.2" d="M106.564 7.86011H103.76V10.6641H106.564V7.86011Z" fill="#899CAF"/>
<path opacity="0.2" d="M117.422 7.86011H114.618V10.6641H117.422V7.86011Z" fill="#899CAF"/>
<path opacity="0.2" d="M128.279 7.86011H125.475V10.6641H128.279V7.86011Z" fill="#899CAF"/>
<path opacity="0.2" d="M139.137 7.86011H136.333V10.6641H139.137V7.86011Z" fill="#899CAF"/>
<path opacity="0.2" d="M149.995 7.86011H147.191V10.6641H149.995V7.86011Z" fill="#899CAF"/>
<path opacity="0.2" d="M160.852 7.86011H158.048V10.6641H160.852V7.86011Z" fill="#899CAF"/>
<path opacity="0.2" d="M171.71 7.86011H168.906V10.6641H171.71V7.86011Z" fill="#899CAF"/>
<path opacity="0.2" d="M182.568 7.86011H179.764V10.6641H182.568V7.86011Z" fill="#899CAF"/>
<path opacity="0.2" d="M193.426 7.86011H190.622V10.6641H193.426V7.86011Z" fill="#899CAF"/>
<path opacity="0.2" d="M204.283 7.86011H201.479V10.6641H204.283V7.86011Z" fill="#899CAF"/>
<path opacity="0.2" d="M215.141 7.86011H212.337V10.6641H215.141V7.86011Z" fill="#899CAF"/>
<path opacity="0.2" d="M225.999 7.86011H223.195V10.6641H225.999V7.86011Z" fill="#899CAF"/>
<path opacity="0.2" d="M236.856 7.86011H234.052V10.6641H236.856V7.86011Z" fill="#899CAF"/>
<path opacity="0.2" d="M247.714 7.86011H244.91V10.6641H247.714V7.86011Z" fill="#899CAF"/>
<path opacity="0.2" d="M258.572 7.86011H255.768V10.6641H258.572V7.86011Z" fill="#899CAF"/>
<path opacity="0.2" d="M269.43 7.86011H266.626V10.6641H269.43V7.86011Z" fill="#899CAF"/>
<path opacity="0.2" d="M280.287 7.86011H277.483V10.6641H280.287V7.86011Z" fill="#899CAF"/>
<path opacity="0.2" d="M291.145 7.86011H288.341V10.6641H291.145V7.86011Z" fill="#899CAF"/>
<path opacity="0.2" d="M302.003 7.86011H299.199V10.6641H302.003V7.86011Z" fill="#899CAF"/>
<path opacity="0.2" d="M312.86 7.86011H310.056V10.6641H312.86V7.86011Z" fill="#899CAF"/>
<path opacity="0.2" d="M323.718 7.86011H320.914V10.6641H323.718V7.86011Z" fill="#899CAF"/>
<path opacity="0.2" d="M334.576 7.86011H331.772V10.6641H334.576V7.86011Z" fill="#899CAF"/>
<path opacity="0.2" d="M345.433 7.86011H342.629V10.6641H345.433V7.86011Z" fill="#899CAF"/>
<path opacity="0.2" d="M356.291 7.86011H353.487V10.6641H356.291V7.86011Z" fill="#899CAF"/>
<path opacity="0.2" d="M367.149 7.86011H364.345V10.6641H367.149V7.86011Z" fill="#899CAF"/>
<path opacity="0.2" d="M378.007 7.86011H375.203V10.6641H378.007V7.86011Z" fill="#899CAF"/>
<path opacity="0.2" d="M388.864 7.86011H386.06V10.6641H388.864V7.86011Z" fill="#899CAF"/>
<path opacity="0.2" d="M399.722 7.86011H396.918V10.6641H399.722V7.86011Z" fill="#899CAF"/>
<path opacity="0.2" d="M410.58 7.86011H407.776V10.6641H410.58V7.86011Z" fill="#899CAF"/>
<path opacity="0.2" d="M421.437 7.86011H418.633V10.6641H421.437V7.86011Z" fill="#899CAF"/>
<path opacity="0.2" d="M432.295 7.86011H429.491V10.6641H432.295V7.86011Z" fill="#899CAF"/>
<path opacity="0.2" d="M443.153 7.86011H440.349V10.6641H443.153V7.86011Z" fill="#899CAF"/>
<path opacity="0.2" d="M52.2751 15.7222H49.4711V18.5262H52.2751V15.7222Z" fill="#899CAF"/>
<path opacity="0.2" d="M63.1331 15.7222H60.3291V18.5262H63.1331V15.7222Z" fill="#899CAF"/>
<path opacity="0.2" d="M73.991 15.7222H71.187V18.5262H73.991V15.7222Z" fill="#899CAF"/>
<path opacity="0.2" d="M84.8481 15.7222H82.0441V18.5262H84.8481V15.7222Z" fill="#899CAF"/>
<path opacity="0.2" d="M95.7061 15.7222H92.9021V18.5262H95.7061V15.7222Z" fill="#899CAF"/>
<path opacity="0.2" d="M106.564 15.7222H103.76V18.5262H106.564V15.7222Z" fill="#899CAF"/>
<path opacity="0.2" d="M117.422 15.7222H114.618V18.5262H117.422V15.7222Z" fill="#899CAF"/>
<path opacity="0.2" d="M128.279 15.7222H125.475V18.5262H128.279V15.7222Z" fill="#899CAF"/>
<path opacity="0.2" d="M139.137 15.7222H136.333V18.5262H139.137V15.7222Z" fill="#899CAF"/>
<path opacity="0.2" d="M149.995 15.7222H147.191V18.5262H149.995V15.7222Z" fill="#899CAF"/>
<path opacity="0.2" d="M160.852 15.7222H158.048V18.5262H160.852V15.7222Z" fill="#899CAF"/>
<path opacity="0.2" d="M171.71 15.7222H168.906V18.5262H171.71V15.7222Z" fill="#899CAF"/>
<path opacity="0.2" d="M182.568 15.7222H179.764V18.5262H182.568V15.7222Z" fill="#899CAF"/>
<path opacity="0.2" d="M193.426 15.7222H190.622V18.5262H193.426V15.7222Z" fill="#899CAF"/>
<path opacity="0.2" d="M204.283 15.7222H201.479V18.5262H204.283V15.7222Z" fill="#899CAF"/>
<path opacity="0.2" d="M215.141 15.7222H212.337V18.5262H215.141V15.7222Z" fill="#899CAF"/>
<path opacity="0.2" d="M225.999 15.7222H223.195V18.5262H225.999V15.7222Z" fill="#899CAF"/>
<path opacity="0.2" d="M236.856 15.7222H234.052V18.5262H236.856V15.7222Z" fill="#899CAF"/>
<path opacity="0.2" d="M247.714 15.7222H244.91V18.5262H247.714V15.7222Z" fill="#899CAF"/>
<path opacity="0.2" d="M258.572 15.7222H255.768V18.5262H258.572V15.7222Z" fill="#899CAF"/>
<path opacity="0.2" d="M269.43 15.7222H266.626V18.5262H269.43V15.7222Z" fill="#899CAF"/>
<path opacity="0.2" d="M280.287 15.7222H277.483V18.5262H280.287V15.7222Z" fill="#899CAF"/>
<path opacity="0.2" d="M291.145 15.7222H288.341V18.5262H291.145V15.7222Z" fill="#899CAF"/>
<path opacity="0.2" d="M302.003 15.7222H299.199V18.5262H302.003V15.7222Z" fill="#899CAF"/>
<path opacity="0.2" d="M312.86 15.7222H310.056V18.5262H312.86V15.7222Z" fill="#899CAF"/>
<path opacity="0.2" d="M323.718 15.7222H320.914V18.5262H323.718V15.7222Z" fill="#899CAF"/>
<path opacity="0.2" d="M334.576 15.7222H331.772V18.5262H334.576V15.7222Z" fill="#899CAF"/>
<path opacity="0.2" d="M345.433 15.7222H342.629V18.5262H345.433V15.7222Z" fill="#899CAF"/>
<path opacity="0.2" d="M356.291 15.7222H353.487V18.5262H356.291V15.7222Z" fill="#899CAF"/>
<path opacity="0.2" d="M367.149 15.7222H364.345V18.5262H367.149V15.7222Z" fill="#899CAF"/>
<path opacity="0.2" d="M378.007 15.7222H375.203V18.5262H378.007V15.7222Z" fill="#899CAF"/>
<path opacity="0.2" d="M388.864 15.7222H386.06V18.5262H388.864V15.7222Z" fill="#899CAF"/>
<path opacity="0.2" d="M399.722 15.7222H396.918V18.5262H399.722V15.7222Z" fill="#899CAF"/>
<path opacity="0.2" d="M410.58 15.7222H407.776V18.5262H410.58V15.7222Z" fill="#899CAF"/>
<path opacity="0.2" d="M421.437 15.7222H418.633V18.5262H421.437V15.7222Z" fill="#899CAF"/>
<path opacity="0.2" d="M432.295 15.7222H429.491V18.5262H432.295V15.7222Z" fill="#899CAF"/>
<path opacity="0.2" d="M443.153 15.7222H440.349V18.5262H443.153V15.7222Z" fill="#899CAF"/>
<path opacity="0.2" d="M52.2751 23.5852H49.4711V26.3892H52.2751V23.5852Z" fill="#899CAF"/>
<path opacity="0.2" d="M63.1331 23.5852H60.3291V26.3892H63.1331V23.5852Z" fill="#899CAF"/>
<path opacity="0.2" d="M73.991 23.5852H71.187V26.3892H73.991V23.5852Z" fill="#899CAF"/>
<path opacity="0.2" d="M84.8481 23.5852H82.0441V26.3892H84.8481V23.5852Z" fill="#899CAF"/>
<path opacity="0.2" d="M95.7061 23.5852H92.9021V26.3892H95.7061V23.5852Z" fill="#899CAF"/>
<path opacity="0.2" d="M106.564 23.5852H103.76V26.3892H106.564V23.5852Z" fill="#899CAF"/>
<path opacity="0.2" d="M117.422 23.5852H114.618V26.3892H117.422V23.5852Z" fill="#899CAF"/>
<path opacity="0.2" d="M128.279 23.5852H125.475V26.3892H128.279V23.5852Z" fill="#899CAF"/>
<path opacity="0.2" d="M139.137 23.5852H136.333V26.3892H139.137V23.5852Z" fill="#899CAF"/>
<path opacity="0.2" d="M149.995 23.5852H147.191V26.3892H149.995V23.5852Z" fill="#899CAF"/>
<path opacity="0.2" d="M160.852 23.5852H158.048V26.3892H160.852V23.5852Z" fill="#899CAF"/>
<path opacity="0.2" d="M171.71 23.5852H168.906V26.3892H171.71V23.5852Z" fill="#899CAF"/>
<path opacity="0.2" d="M182.568 23.5852H179.764V26.3892H182.568V23.5852Z" fill="#899CAF"/>
<path opacity="0.2" d="M193.426 23.5852H190.622V26.3892H193.426V23.5852Z" fill="#899CAF"/>
<path opacity="0.2" d="M204.283 23.5852H201.479V26.3892H204.283V23.5852Z" fill="#899CAF"/>
<path opacity="0.2" d="M215.141 23.5852H212.337V26.3892H215.141V23.5852Z" fill="#899CAF"/>
<path opacity="0.2" d="M225.999 23.5852H223.195V26.3892H225.999V23.5852Z" fill="#899CAF"/>
<path opacity="0.2" d="M236.856 23.5852H234.052V26.3892H236.856V23.5852Z" fill="#899CAF"/>
<path opacity="0.2" d="M247.714 23.5852H244.91V26.3892H247.714V23.5852Z" fill="#899CAF"/>
<path opacity="0.2" d="M258.572 23.5852H255.768V26.3892H258.572V23.5852Z" fill="#899CAF"/>
<path opacity="0.2" d="M269.43 23.5852H266.626V26.3892H269.43V23.5852Z" fill="#899CAF"/>
<path opacity="0.2" d="M280.287 23.5852H277.483V26.3892H280.287V23.5852Z" fill="#899CAF"/>
<path opacity="0.2" d="M291.145 23.5852H288.341V26.3892H291.145V23.5852Z" fill="#899CAF"/>
<path opacity="0.2" d="M302.003 23.5852H299.199V26.3892H302.003V23.5852Z" fill="#899CAF"/>
<path opacity="0.2" d="M312.86 23.5852H310.056V26.3892H312.86V23.5852Z" fill="#899CAF"/>
<path opacity="0.2" d="M323.718 23.5852H320.914V26.3892H323.718V23.5852Z" fill="#899CAF"/>
<path opacity="0.2" d="M334.576 23.5852H331.772V26.3892H334.576V23.5852Z" fill="#899CAF"/>
<path opacity="0.2" d="M345.433 23.5852H342.629V26.3892H345.433V23.5852Z" fill="#899CAF"/>
<path opacity="0.2" d="M356.291 23.5852H353.487V26.3892H356.291V23.5852Z" fill="#899CAF"/>
<path opacity="0.2" d="M367.149 23.5852H364.345V26.3892H367.149V23.5852Z" fill="#899CAF"/>
<path opacity="0.2" d="M378.007 23.5852H375.203V26.3892H378.007V23.5852Z" fill="#899CAF"/>
<path opacity="0.2" d="M388.864 23.5852H386.06V26.3892H388.864V23.5852Z" fill="#899CAF"/>
<path opacity="0.2" d="M399.722 23.5852H396.918V26.3892H399.722V23.5852Z" fill="#899CAF"/>
<path opacity="0.2" d="M410.58 23.5852H407.776V26.3892H410.58V23.5852Z" fill="#899CAF"/>
<path opacity="0.2" d="M421.437 23.5852H418.633V26.3892H421.437V23.5852Z" fill="#899CAF"/>
<path opacity="0.2" d="M432.295 23.5852H429.491V26.3892H432.295V23.5852Z" fill="#899CAF"/>
<path opacity="0.2" d="M443.153 23.5852H440.349V26.3892H443.153V23.5852Z" fill="#899CAF"/>
<path opacity="0.2" d="M52.2751 31.447H49.4711V34.251H52.2751V31.447Z" fill="#899CAF"/>
<path opacity="0.2" d="M63.1331 31.447H60.3291V34.251H63.1331V31.447Z" fill="#899CAF"/>
<path opacity="0.2" d="M73.991 31.447H71.187V34.251H73.991V31.447Z" fill="#899CAF"/>
<path opacity="0.2" d="M84.8481 31.447H82.0441V34.251H84.8481V31.447Z" fill="#899CAF"/>
<path opacity="0.2" d="M95.7061 31.447H92.9021V34.251H95.7061V31.447Z" fill="#899CAF"/>
<path opacity="0.2" d="M106.564 31.447H103.76V34.251H106.564V31.447Z" fill="#899CAF"/>
<path opacity="0.2" d="M117.422 31.447H114.618V34.251H117.422V31.447Z" fill="#899CAF"/>
<path opacity="0.2" d="M128.279 31.447H125.475V34.251H128.279V31.447Z" fill="#899CAF"/>
<path opacity="0.2" d="M139.137 31.447H136.333V34.251H139.137V31.447Z" fill="#899CAF"/>
<path opacity="0.2" d="M149.995 31.447H147.191V34.251H149.995V31.447Z" fill="#899CAF"/>
<path opacity="0.2" d="M160.852 31.447H158.048V34.251H160.852V31.447Z" fill="#899CAF"/>
<path opacity="0.2" d="M171.71 31.447H168.906V34.251H171.71V31.447Z" fill="#899CAF"/>
<path opacity="0.2" d="M182.568 31.447H179.764V34.251H182.568V31.447Z" fill="#899CAF"/>
<path opacity="0.2" d="M193.426 31.447H190.622V34.251H193.426V31.447Z" fill="#899CAF"/>
<path opacity="0.2" d="M204.283 31.447H201.479V34.251H204.283V31.447Z" fill="#899CAF"/>
<path opacity="0.2" d="M215.141 31.447H212.337V34.251H215.141V31.447Z" fill="#899CAF"/>
<path opacity="0.2" d="M225.999 31.447H223.195V34.251H225.999V31.447Z" fill="#899CAF"/>
<path opacity="0.2" d="M236.856 31.447H234.052V34.251H236.856V31.447Z" fill="#899CAF"/>
<path opacity="0.2" d="M247.714 31.447H244.91V34.251H247.714V31.447Z" fill="#899CAF"/>
<path opacity="0.2" d="M258.572 31.447H255.768V34.251H258.572V31.447Z" fill="#899CAF"/>
<path opacity="0.2" d="M269.43 31.447H266.626V34.251H269.43V31.447Z" fill="#899CAF"/>
<path opacity="0.2" d="M280.287 31.447H277.483V34.251H280.287V31.447Z" fill="#899CAF"/>
<path opacity="0.2" d="M291.145 31.447H288.341V34.251H291.145V31.447Z" fill="#899CAF"/>
<path opacity="0.2" d="M302.003 31.447H299.199V34.251H302.003V31.447Z" fill="#899CAF"/>
<path opacity="0.2" d="M312.86 31.447H310.056V34.251H312.86V31.447Z" fill="#899CAF"/>
<path opacity="0.2" d="M323.718 31.447H320.914V34.251H323.718V31.447Z" fill="#899CAF"/>
<path opacity="0.2" d="M334.576 31.447H331.772V34.251H334.576V31.447Z" fill="#899CAF"/>
<path opacity="0.2" d="M345.433 31.447H342.629V34.251H345.433V31.447Z" fill="#899CAF"/>
<path opacity="0.2" d="M356.291 31.447H353.487V34.251H356.291V31.447Z" fill="#899CAF"/>
<path opacity="0.2" d="M367.149 31.447H364.345V34.251H367.149V31.447Z" fill="#899CAF"/>
<path opacity="0.2" d="M378.007 31.447H375.203V34.251H378.007V31.447Z" fill="#899CAF"/>
<path opacity="0.2" d="M388.864 31.447H386.06V34.251H388.864V31.447Z" fill="#899CAF"/>
<path opacity="0.2" d="M399.722 31.447H396.918V34.251H399.722V31.447Z" fill="#899CAF"/>
<path opacity="0.2" d="M410.58 31.447H407.776V34.251H410.58V31.447Z" fill="#899CAF"/>
<path opacity="0.2" d="M421.437 31.447H418.633V34.251H421.437V31.447Z" fill="#899CAF"/>
<path opacity="0.2" d="M432.295 31.447H429.491V34.251H432.295V31.447Z" fill="#899CAF"/>
<path opacity="0.2" d="M443.153 31.447H440.349V34.251H443.153V31.447Z" fill="#899CAF"/>
<path opacity="0.2" d="M52.2751 39.3101H49.4711V42.1141H52.2751V39.3101Z" fill="#899CAF"/>
<path opacity="0.2" d="M63.1331 39.3101H60.3291V42.1141H63.1331V39.3101Z" fill="#899CAF"/>
<path opacity="0.2" d="M73.991 39.3101H71.187V42.1141H73.991V39.3101Z" fill="#899CAF"/>
<path opacity="0.2" d="M84.8481 39.3101H82.0441V42.1141H84.8481V39.3101Z" fill="#899CAF"/>
<path opacity="0.2" d="M95.7061 39.3101H92.9021V42.1141H95.7061V39.3101Z" fill="#899CAF"/>
<path opacity="0.2" d="M106.564 39.3101H103.76V42.1141H106.564V39.3101Z" fill="#899CAF"/>
<path opacity="0.2" d="M117.422 39.3101H114.618V42.1141H117.422V39.3101Z" fill="#899CAF"/>
<path opacity="0.2" d="M128.279 39.3101H125.475V42.1141H128.279V39.3101Z" fill="#899CAF"/>
<path opacity="0.2" d="M139.137 39.3101H136.333V42.1141H139.137V39.3101Z" fill="#899CAF"/>
<path opacity="0.2" d="M149.995 39.3101H147.191V42.1141H149.995V39.3101Z" fill="#899CAF"/>
<path opacity="0.2" d="M160.852 39.3101H158.048V42.1141H160.852V39.3101Z" fill="#899CAF"/>
<path opacity="0.2" d="M171.71 39.3101H168.906V42.1141H171.71V39.3101Z" fill="#899CAF"/>
<path opacity="0.2" d="M182.568 39.3101H179.764V42.1141H182.568V39.3101Z" fill="#899CAF"/>
<path opacity="0.2" d="M193.426 39.3101H190.622V42.1141H193.426V39.3101Z" fill="#899CAF"/>
<path opacity="0.2" d="M204.283 39.3101H201.479V42.1141H204.283V39.3101Z" fill="#899CAF"/>
<path opacity="0.2" d="M215.141 39.3101H212.337V42.1141H215.141V39.3101Z" fill="#899CAF"/>
<path opacity="0.2" d="M225.999 39.3101H223.195V42.1141H225.999V39.3101Z" fill="#899CAF"/>
<path opacity="0.2" d="M236.856 39.3101H234.052V42.1141H236.856V39.3101Z" fill="#899CAF"/>
<path opacity="0.2" d="M247.714 39.3101H244.91V42.1141H247.714V39.3101Z" fill="#899CAF"/>
<path opacity="0.2" d="M258.572 39.3101H255.768V42.1141H258.572V39.3101Z" fill="#899CAF"/>
<path opacity="0.2" d="M269.43 39.3101H266.626V42.1141H269.43V39.3101Z" fill="#899CAF"/>
<path opacity="0.2" d="M280.287 39.3101H277.483V42.1141H280.287V39.3101Z" fill="#899CAF"/>
<path opacity="0.2" d="M291.145 39.3101H288.341V42.1141H291.145V39.3101Z" fill="#899CAF"/>
<path opacity="0.2" d="M302.003 39.3101H299.199V42.1141H302.003V39.3101Z" fill="#899CAF"/>
<path opacity="0.2" d="M312.86 39.3101H310.056V42.1141H312.86V39.3101Z" fill="#899CAF"/>
<path opacity="0.2" d="M323.718 39.3101H320.914V42.1141H323.718V39.3101Z" fill="#899CAF"/>
<path opacity="0.2" d="M334.576 39.3101H331.772V42.1141H334.576V39.3101Z" fill="#899CAF"/>
<path opacity="0.2" d="M345.433 39.3101H342.629V42.1141H345.433V39.3101Z" fill="#899CAF"/>
<path opacity="0.2" d="M356.291 39.3101H353.487V42.1141H356.291V39.3101Z" fill="#899CAF"/>
<path opacity="0.2" d="M367.149 39.3101H364.345V42.1141H367.149V39.3101Z" fill="#899CAF"/>
<path opacity="0.2" d="M378.007 39.3101H375.203V42.1141H378.007V39.3101Z" fill="#899CAF"/>
<path opacity="0.2" d="M388.864 39.3101H386.06V42.1141H388.864V39.3101Z" fill="#899CAF"/>
<path opacity="0.2" d="M399.722 39.3101H396.918V42.1141H399.722V39.3101Z" fill="#899CAF"/>
<path opacity="0.2" d="M410.58 39.3101H407.776V42.1141H410.58V39.3101Z" fill="#899CAF"/>
<path opacity="0.2" d="M421.437 39.3101H418.633V42.1141H421.437V39.3101Z" fill="#899CAF"/>
<path opacity="0.2" d="M432.295 39.3101H429.491V42.1141H432.295V39.3101Z" fill="#899CAF"/>
<path opacity="0.2" d="M443.153 39.3101H440.349V42.1141H443.153V39.3101Z" fill="#899CAF"/>
<path opacity="0.2" d="M52.2751 47.1721H49.4711V49.9761H52.2751V47.1721Z" fill="#899CAF"/>
<path opacity="0.2" d="M63.1331 47.1721H60.3291V49.9761H63.1331V47.1721Z" fill="#899CAF"/>
<path opacity="0.2" d="M73.991 47.1721H71.187V49.9761H73.991V47.1721Z" fill="#899CAF"/>
<path opacity="0.2" d="M84.8481 47.1721H82.0441V49.9761H84.8481V47.1721Z" fill="#899CAF"/>
<path opacity="0.2" d="M95.7061 47.1721H92.9021V49.9761H95.7061V47.1721Z" fill="#899CAF"/>
<path opacity="0.2" d="M106.564 47.1721H103.76V49.9761H106.564V47.1721Z" fill="#899CAF"/>
<path opacity="0.2" d="M117.422 47.1721H114.618V49.9761H117.422V47.1721Z" fill="#899CAF"/>
<path opacity="0.2" d="M128.279 47.1721H125.475V49.9761H128.279V47.1721Z" fill="#899CAF"/>
<path opacity="0.2" d="M139.137 47.1721H136.333V49.9761H139.137V47.1721Z" fill="#899CAF"/>
<path opacity="0.2" d="M149.995 47.1721H147.191V49.9761H149.995V47.1721Z" fill="#899CAF"/>
<path opacity="0.2" d="M160.852 47.1721H158.048V49.9761H160.852V47.1721Z" fill="#899CAF"/>
<path opacity="0.2" d="M171.71 47.1721H168.906V49.9761H171.71V47.1721Z" fill="#899CAF"/>
<path opacity="0.2" d="M182.568 47.1721H179.764V49.9761H182.568V47.1721Z" fill="#899CAF"/>
<path opacity="0.2" d="M193.426 47.1721H190.622V49.9761H193.426V47.1721Z" fill="#899CAF"/>
<path opacity="0.2" d="M204.283 47.1721H201.479V49.9761H204.283V47.1721Z" fill="#899CAF"/>
<path opacity="0.2" d="M215.141 47.1721H212.337V49.9761H215.141V47.1721Z" fill="#899CAF"/>
<path opacity="0.2" d="M225.999 47.1721H223.195V49.9761H225.999V47.1721Z" fill="#899CAF"/>
<path opacity="0.2" d="M236.856 47.1721H234.052V49.9761H236.856V47.1721Z" fill="#899CAF"/>
<path opacity="0.2" d="M247.714 47.1721H244.91V49.9761H247.714V47.1721Z" fill="#899CAF"/>
<path opacity="0.2" d="M258.572 47.1721H255.768V49.9761H258.572V47.1721Z" fill="#899CAF"/>
<path opacity="0.2" d="M269.43 47.1721H266.626V49.9761H269.43V47.1721Z" fill="#899CAF"/>
<path opacity="0.2" d="M280.287 47.1721H277.483V49.9761H280.287V47.1721Z" fill="#899CAF"/>
<path opacity="0.2" d="M291.145 47.1721H288.341V49.9761H291.145V47.1721Z" fill="#899CAF"/>
<path opacity="0.2" d="M302.003 47.1721H299.199V49.9761H302.003V47.1721Z" fill="#899CAF"/>
<path opacity="0.2" d="M312.86 47.1721H310.056V49.9761H312.86V47.1721Z" fill="#899CAF"/>
<path opacity="0.2" d="M323.718 47.1721H320.914V49.9761H323.718V47.1721Z" fill="#899CAF"/>
<path opacity="0.2" d="M334.576 47.1721H331.772V49.9761H334.576V47.1721Z" fill="#899CAF"/>
<path opacity="0.2" d="M345.433 47.1721H342.629V49.9761H345.433V47.1721Z" fill="#899CAF"/>
<path opacity="0.2" d="M356.291 47.1721H353.487V49.9761H356.291V47.1721Z" fill="#899CAF"/>
<path opacity="0.2" d="M367.149 47.1721H364.345V49.9761H367.149V47.1721Z" fill="#899CAF"/>
<path opacity="0.2" d="M378.007 47.1721H375.203V49.9761H378.007V47.1721Z" fill="#899CAF"/>
<path opacity="0.2" d="M388.864 47.1721H386.06V49.9761H388.864V47.1721Z" fill="#899CAF"/>
<path opacity="0.2" d="M399.722 47.1721H396.918V49.9761H399.722V47.1721Z" fill="#899CAF"/>
<path opacity="0.2" d="M410.58 47.1721H407.776V49.9761H410.58V47.1721Z" fill="#899CAF"/>
<path opacity="0.2" d="M421.437 47.1721H418.633V49.9761H421.437V47.1721Z" fill="#899CAF"/>
<path opacity="0.2" d="M432.295 47.1721H429.491V49.9761H432.295V47.1721Z" fill="#899CAF"/>
<path opacity="0.2" d="M443.153 47.1721H440.349V49.9761H443.153V47.1721Z" fill="#899CAF"/>
<path opacity="0.2" d="M52.2751 55.0352H49.4711V57.8392H52.2751V55.0352Z" fill="#899CAF"/>
<path opacity="0.2" d="M63.1331 55.0352H60.3291V57.8392H63.1331V55.0352Z" fill="#899CAF"/>
<path opacity="0.2" d="M73.991 55.0352H71.187V57.8392H73.991V55.0352Z" fill="#899CAF"/>
<path opacity="0.2" d="M84.8481 55.0352H82.0441V57.8392H84.8481V55.0352Z" fill="#899CAF"/>
<path opacity="0.2" d="M95.7061 55.0352H92.9021V57.8392H95.7061V55.0352Z" fill="#899CAF"/>
<path opacity="0.2" d="M106.564 55.0352H103.76V57.8392H106.564V55.0352Z" fill="#899CAF"/>
<path opacity="0.2" d="M117.422 55.0352H114.618V57.8392H117.422V55.0352Z" fill="#899CAF"/>
<path opacity="0.2" d="M128.279 55.0352H125.475V57.8392H128.279V55.0352Z" fill="#899CAF"/>
<path opacity="0.2" d="M139.137 55.0352H136.333V57.8392H139.137V55.0352Z" fill="#899CAF"/>
<path opacity="0.2" d="M149.995 55.0352H147.191V57.8392H149.995V55.0352Z" fill="#899CAF"/>
<path opacity="0.2" d="M160.852 55.0352H158.048V57.8392H160.852V55.0352Z" fill="#899CAF"/>
<path opacity="0.2" d="M171.71 55.0352H168.906V57.8392H171.71V55.0352Z" fill="#899CAF"/>
<path opacity="0.2" d="M182.568 55.0352H179.764V57.8392H182.568V55.0352Z" fill="#899CAF"/>
<path opacity="0.2" d="M193.426 55.0352H190.622V57.8392H193.426V55.0352Z" fill="#899CAF"/>
<path opacity="0.2" d="M204.283 55.0352H201.479V57.8392H204.283V55.0352Z" fill="#899CAF"/>
<path opacity="0.2" d="M215.141 55.0352H212.337V57.8392H215.141V55.0352Z" fill="#899CAF"/>
<path opacity="0.2" d="M225.999 55.0352H223.195V57.8392H225.999V55.0352Z" fill="#899CAF"/>
<path opacity="0.2" d="M236.856 55.0352H234.052V57.8392H236.856V55.0352Z" fill="#899CAF"/>
<path opacity="0.2" d="M247.714 55.0352H244.91V57.8392H247.714V55.0352Z" fill="#899CAF"/>
<path opacity="0.2" d="M258.572 55.0352H255.768V57.8392H258.572V55.0352Z" fill="#899CAF"/>
<path opacity="0.2" d="M269.43 55.0352H266.626V57.8392H269.43V55.0352Z" fill="#899CAF"/>
<path opacity="0.2" d="M280.287 55.0352H277.483V57.8392H280.287V55.0352Z" fill="#899CAF"/>
<path opacity="0.2" d="M291.145 55.0352H288.341V57.8392H291.145V55.0352Z" fill="#899CAF"/>
<path opacity="0.2" d="M302.003 55.0352H299.199V57.8392H302.003V55.0352Z" fill="#899CAF"/>
<path opacity="0.2" d="M312.86 55.0352H310.056V57.8392H312.86V55.0352Z" fill="#899CAF"/>
<path opacity="0.2" d="M323.718 55.0352H320.914V57.8392H323.718V55.0352Z" fill="#899CAF"/>
<path opacity="0.2" d="M334.576 55.0352H331.772V57.8392H334.576V55.0352Z" fill="#899CAF"/>
<path opacity="0.2" d="M345.433 55.0352H342.629V57.8392H345.433V55.0352Z" fill="#899CAF"/>
<path opacity="0.2" d="M356.291 55.0352H353.487V57.8392H356.291V55.0352Z" fill="#899CAF"/>
<path opacity="0.2" d="M367.149 55.0352H364.345V57.8392H367.149V55.0352Z" fill="#899CAF"/>
<path opacity="0.2" d="M378.007 55.0352H375.203V57.8392H378.007V55.0352Z" fill="#899CAF"/>
<path opacity="0.2" d="M388.864 55.0352H386.06V57.8392H388.864V55.0352Z" fill="#899CAF"/>
<path opacity="0.2" d="M399.722 55.0352H396.918V57.8392H399.722V55.0352Z" fill="#899CAF"/>
<path opacity="0.2" d="M410.58 55.0352H407.776V57.8392H410.58V55.0352Z" fill="#899CAF"/>
<path opacity="0.2" d="M421.437 55.0352H418.633V57.8392H421.437V55.0352Z" fill="#899CAF"/>
<path opacity="0.2" d="M432.295 55.0352H429.491V57.8392H432.295V55.0352Z" fill="#899CAF"/>
<path opacity="0.2" d="M443.153 55.0352H440.349V57.8392H443.153V55.0352Z" fill="#899CAF"/>
<path opacity="0.2" d="M52.2751 62.8972H49.4711V65.7012H52.2751V62.8972Z" fill="#899CAF"/>
<path opacity="0.2" d="M63.1331 62.8972H60.3291V65.7012H63.1331V62.8972Z" fill="#899CAF"/>
<path opacity="0.2" d="M73.991 62.8972H71.187V65.7012H73.991V62.8972Z" fill="#899CAF"/>
<path opacity="0.2" d="M84.8481 62.8972H82.0441V65.7012H84.8481V62.8972Z" fill="#899CAF"/>
<path opacity="0.2" d="M95.7061 62.8972H92.9021V65.7012H95.7061V62.8972Z" fill="#899CAF"/>
<path opacity="0.2" d="M106.564 62.8972H103.76V65.7012H106.564V62.8972Z" fill="#899CAF"/>
<path opacity="0.2" d="M117.422 62.8972H114.618V65.7012H117.422V62.8972Z" fill="#899CAF"/>
<path opacity="0.2" d="M128.279 62.8972H125.475V65.7012H128.279V62.8972Z" fill="#899CAF"/>
<path opacity="0.2" d="M139.137 62.8972H136.333V65.7012H139.137V62.8972Z" fill="#899CAF"/>
<path opacity="0.2" d="M149.995 62.8972H147.191V65.7012H149.995V62.8972Z" fill="#899CAF"/>
<path opacity="0.2" d="M160.852 62.8972H158.048V65.7012H160.852V62.8972Z" fill="#899CAF"/>
<path opacity="0.2" d="M171.71 62.8972H168.906V65.7012H171.71V62.8972Z" fill="#899CAF"/>
<path opacity="0.2" d="M182.568 62.8972H179.764V65.7012H182.568V62.8972Z" fill="#899CAF"/>
<path opacity="0.2" d="M193.426 62.8972H190.622V65.7012H193.426V62.8972Z" fill="#899CAF"/>
<path opacity="0.2" d="M204.283 62.8972H201.479V65.7012H204.283V62.8972Z" fill="#899CAF"/>
<path opacity="0.2" d="M215.141 62.8972H212.337V65.7012H215.141V62.8972Z" fill="#899CAF"/>
<path opacity="0.2" d="M225.999 62.8972H223.195V65.7012H225.999V62.8972Z" fill="#899CAF"/>
<path opacity="0.2" d="M236.856 62.8972H234.052V65.7012H236.856V62.8972Z" fill="#899CAF"/>
<path opacity="0.2" d="M247.714 62.8972H244.91V65.7012H247.714V62.8972Z" fill="#899CAF"/>
<path opacity="0.2" d="M258.572 62.8972H255.768V65.7012H258.572V62.8972Z" fill="#899CAF"/>
<path opacity="0.2" d="M269.43 62.8972H266.626V65.7012H269.43V62.8972Z" fill="#899CAF"/>
<path opacity="0.2" d="M280.287 62.8972H277.483V65.7012H280.287V62.8972Z" fill="#899CAF"/>
<path opacity="0.2" d="M291.145 62.8972H288.341V65.7012H291.145V62.8972Z" fill="#899CAF"/>
<path opacity="0.2" d="M302.003 62.8972H299.199V65.7012H302.003V62.8972Z" fill="#899CAF"/>
<path opacity="0.2" d="M312.86 62.8972H310.056V65.7012H312.86V62.8972Z" fill="#899CAF"/>
<path opacity="0.2" d="M323.718 62.8972H320.914V65.7012H323.718V62.8972Z" fill="#899CAF"/>
<path opacity="0.2" d="M334.576 62.8972H331.772V65.7012H334.576V62.8972Z" fill="#899CAF"/>
<path opacity="0.2" d="M345.433 62.8972H342.629V65.7012H345.433V62.8972Z" fill="#899CAF"/>
<path opacity="0.2" d="M356.291 62.8972H353.487V65.7012H356.291V62.8972Z" fill="#899CAF"/>
<path opacity="0.2" d="M367.149 62.8972H364.345V65.7012H367.149V62.8972Z" fill="#899CAF"/>
<path opacity="0.2" d="M378.007 62.8972H375.203V65.7012H378.007V62.8972Z" fill="#899CAF"/>
<path opacity="0.2" d="M388.864 62.8972H386.06V65.7012H388.864V62.8972Z" fill="#899CAF"/>
<path opacity="0.2" d="M399.722 62.8972H396.918V65.7012H399.722V62.8972Z" fill="#899CAF"/>
<path opacity="0.2" d="M410.58 62.8972H407.776V65.7012H410.58V62.8972Z" fill="#899CAF"/>
<path opacity="0.2" d="M421.437 62.8972H418.633V65.7012H421.437V62.8972Z" fill="#899CAF"/>
<path opacity="0.2" d="M432.295 62.8972H429.491V65.7012H432.295V62.8972Z" fill="#899CAF"/>
<path opacity="0.2" d="M443.153 62.8972H440.349V65.7012H443.153V62.8972Z" fill="#899CAF"/>
<path opacity="0.2" d="M52.2751 70.76H49.4711V73.564H52.2751V70.76Z" fill="#899CAF"/>
<path opacity="0.2" d="M63.1331 70.76H60.3291V73.564H63.1331V70.76Z" fill="#899CAF"/>
<path opacity="0.2" d="M73.991 70.76H71.187V73.564H73.991V70.76Z" fill="#899CAF"/>
<path opacity="0.2" d="M84.8481 70.76H82.0441V73.564H84.8481V70.76Z" fill="#899CAF"/>
<path opacity="0.2" d="M95.7061 70.76H92.9021V73.564H95.7061V70.76Z" fill="#899CAF"/>
<path opacity="0.2" d="M106.564 70.76H103.76V73.564H106.564V70.76Z" fill="#899CAF"/>
<path opacity="0.2" d="M117.422 70.76H114.618V73.564H117.422V70.76Z" fill="#899CAF"/>
<path opacity="0.2" d="M128.279 70.76H125.475V73.564H128.279V70.76Z" fill="#899CAF"/>
<path opacity="0.2" d="M139.137 70.76H136.333V73.564H139.137V70.76Z" fill="#899CAF"/>
<path opacity="0.2" d="M149.995 70.76H147.191V73.564H149.995V70.76Z" fill="#899CAF"/>
<path opacity="0.2" d="M160.852 70.76H158.048V73.564H160.852V70.76Z" fill="#899CAF"/>
<path opacity="0.2" d="M171.71 70.76H168.906V73.564H171.71V70.76Z" fill="#899CAF"/>
<path opacity="0.2" d="M182.568 70.76H179.764V73.564H182.568V70.76Z" fill="#899CAF"/>
<path opacity="0.2" d="M193.426 70.76H190.622V73.564H193.426V70.76Z" fill="#899CAF"/>
<path opacity="0.2" d="M204.283 70.76H201.479V73.564H204.283V70.76Z" fill="#899CAF"/>
<path opacity="0.2" d="M215.141 70.76H212.337V73.564H215.141V70.76Z" fill="#899CAF"/>
<path opacity="0.2" d="M225.999 70.76H223.195V73.564H225.999V70.76Z" fill="#899CAF"/>
<path opacity="0.2" d="M236.856 70.76H234.052V73.564H236.856V70.76Z" fill="#899CAF"/>
<path opacity="0.2" d="M247.714 70.76H244.91V73.564H247.714V70.76Z" fill="#899CAF"/>
<path opacity="0.2" d="M258.572 70.76H255.768V73.564H258.572V70.76Z" fill="#899CAF"/>
<path opacity="0.2" d="M269.43 70.76H266.626V73.564H269.43V70.76Z" fill="#899CAF"/>
<path opacity="0.2" d="M280.287 70.76H277.483V73.564H280.287V70.76Z" fill="#899CAF"/>
<path opacity="0.2" d="M291.145 70.76H288.341V73.564H291.145V70.76Z" fill="#899CAF"/>
<path opacity="0.2" d="M302.003 70.76H299.199V73.564H302.003V70.76Z" fill="#899CAF"/>
<path opacity="0.2" d="M312.86 70.76H310.056V73.564H312.86V70.76Z" fill="#899CAF"/>
<path opacity="0.2" d="M323.718 70.76H320.914V73.564H323.718V70.76Z" fill="#899CAF"/>
<path opacity="0.2" d="M334.576 70.76H331.772V73.564H334.576V70.76Z" fill="#899CAF"/>
<path opacity="0.2" d="M345.433 70.76H342.629V73.564H345.433V70.76Z" fill="#899CAF"/>
<path opacity="0.2" d="M356.291 70.76H353.487V73.564H356.291V70.76Z" fill="#899CAF"/>
<path opacity="0.2" d="M367.149 70.76H364.345V73.564H367.149V70.76Z" fill="#899CAF"/>
<path opacity="0.2" d="M378.007 70.76H375.203V73.564H378.007V70.76Z" fill="#899CAF"/>
<path opacity="0.2" d="M388.864 70.76H386.06V73.564H388.864V70.76Z" fill="#899CAF"/>
<path opacity="0.2" d="M399.722 70.76H396.918V73.564H399.722V70.76Z" fill="#899CAF"/>
<path opacity="0.2" d="M410.58 70.76H407.776V73.564H410.58V70.76Z" fill="#899CAF"/>
<path opacity="0.2" d="M421.437 70.76H418.633V73.564H421.437V70.76Z" fill="#899CAF"/>
<path opacity="0.2" d="M432.295 70.76H429.491V73.564H432.295V70.76Z" fill="#899CAF"/>
<path opacity="0.2" d="M443.153 70.76H440.349V73.564H443.153V70.76Z" fill="#899CAF"/>
<path opacity="0.2" d="M52.2751 78.6221H49.4711V81.4261H52.2751V78.6221Z" fill="#899CAF"/>
<path opacity="0.2" d="M63.1331 78.6221H60.3291V81.4261H63.1331V78.6221Z" fill="#899CAF"/>
<path opacity="0.2" d="M73.991 78.6221H71.187V81.4261H73.991V78.6221Z" fill="#899CAF"/>
<path opacity="0.2" d="M84.8481 78.6221H82.0441V81.4261H84.8481V78.6221Z" fill="#899CAF"/>
<path opacity="0.2" d="M95.7061 78.6221H92.9021V81.4261H95.7061V78.6221Z" fill="#899CAF"/>
<path opacity="0.2" d="M106.564 78.6221H103.76V81.4261H106.564V78.6221Z" fill="#899CAF"/>
<path opacity="0.2" d="M117.422 78.6221H114.618V81.4261H117.422V78.6221Z" fill="#899CAF"/>
<path opacity="0.2" d="M128.279 78.6221H125.475V81.4261H128.279V78.6221Z" fill="#899CAF"/>
<path opacity="0.2" d="M139.137 78.6221H136.333V81.4261H139.137V78.6221Z" fill="#899CAF"/>
<path opacity="0.2" d="M149.995 78.6221H147.191V81.4261H149.995V78.6221Z" fill="#899CAF"/>
<path opacity="0.2" d="M160.852 78.6221H158.048V81.4261H160.852V78.6221Z" fill="#899CAF"/>
<path opacity="0.2" d="M171.71 78.6221H168.906V81.4261H171.71V78.6221Z" fill="#899CAF"/>
<path opacity="0.2" d="M182.568 78.6221H179.764V81.4261H182.568V78.6221Z" fill="#899CAF"/>
<path opacity="0.2" d="M193.426 78.6221H190.622V81.4261H193.426V78.6221Z" fill="#899CAF"/>
<path opacity="0.2" d="M204.283 78.6221H201.479V81.4261H204.283V78.6221Z" fill="#899CAF"/>
<path opacity="0.2" d="M215.141 78.6221H212.337V81.4261H215.141V78.6221Z" fill="#899CAF"/>
<path opacity="0.2" d="M225.999 78.6221H223.195V81.4261H225.999V78.6221Z" fill="#899CAF"/>
<path opacity="0.2" d="M236.856 78.6221H234.052V81.4261H236.856V78.6221Z" fill="#899CAF"/>
<path opacity="0.2" d="M247.714 78.6221H244.91V81.4261H247.714V78.6221Z" fill="#899CAF"/>
<path opacity="0.2" d="M258.572 78.6221H255.768V81.4261H258.572V78.6221Z" fill="#899CAF"/>
<path opacity="0.2" d="M269.43 78.6221H266.626V81.4261H269.43V78.6221Z" fill="#899CAF"/>
<path opacity="0.2" d="M280.287 78.6221H277.483V81.4261H280.287V78.6221Z" fill="#899CAF"/>
<path opacity="0.2" d="M291.145 78.6221H288.341V81.4261H291.145V78.6221Z" fill="#899CAF"/>
<path opacity="0.2" d="M302.003 78.6221H299.199V81.4261H302.003V78.6221Z" fill="#899CAF"/>
<path opacity="0.2" d="M312.86 78.6221H310.056V81.4261H312.86V78.6221Z" fill="#899CAF"/>
<path opacity="0.2" d="M323.718 78.6221H320.914V81.4261H323.718V78.6221Z" fill="#899CAF"/>
<path opacity="0.2" d="M334.576 78.6221H331.772V81.4261H334.576V78.6221Z" fill="#899CAF"/>
<path opacity="0.2" d="M345.433 78.6221H342.629V81.4261H345.433V78.6221Z" fill="#899CAF"/>
<path opacity="0.2" d="M356.291 78.6221H353.487V81.4261H356.291V78.6221Z" fill="#899CAF"/>
<path opacity="0.2" d="M367.149 78.6221H364.345V81.4261H367.149V78.6221Z" fill="#899CAF"/>
<path opacity="0.2" d="M378.007 78.6221H375.203V81.4261H378.007V78.6221Z" fill="#899CAF"/>
<path opacity="0.2" d="M388.864 78.6221H386.06V81.4261H388.864V78.6221Z" fill="#899CAF"/>
<path opacity="0.2" d="M399.722 78.6221H396.918V81.4261H399.722V78.6221Z" fill="#899CAF"/>
<path opacity="0.2" d="M410.58 78.6221H407.776V81.4261H410.58V78.6221Z" fill="#899CAF"/>
<path opacity="0.2" d="M421.437 78.6221H418.633V81.4261H421.437V78.6221Z" fill="#899CAF"/>
<path opacity="0.2" d="M432.295 78.6221H429.491V81.4261H432.295V78.6221Z" fill="#899CAF"/>
<path opacity="0.2" d="M443.153 78.6221H440.349V81.4261H443.153V78.6221Z" fill="#899CAF"/>
<path opacity="0.2" d="M52.2751 86.4851H49.4711V89.2891H52.2751V86.4851Z" fill="#899CAF"/>
<path opacity="0.2" d="M63.1331 86.4851H60.3291V89.2891H63.1331V86.4851Z" fill="#899CAF"/>
<path opacity="0.2" d="M73.991 86.4851H71.187V89.2891H73.991V86.4851Z" fill="#899CAF"/>
<path opacity="0.2" d="M84.8481 86.4851H82.0441V89.2891H84.8481V86.4851Z" fill="#899CAF"/>
<path opacity="0.2" d="M95.7061 86.4851H92.9021V89.2891H95.7061V86.4851Z" fill="#899CAF"/>
<path opacity="0.2" d="M106.564 86.4851H103.76V89.2891H106.564V86.4851Z" fill="#899CAF"/>
<path opacity="0.2" d="M117.422 86.4851H114.618V89.2891H117.422V86.4851Z" fill="#899CAF"/>
<path opacity="0.2" d="M128.279 86.4851H125.475V89.2891H128.279V86.4851Z" fill="#899CAF"/>
<path opacity="0.2" d="M139.137 86.4851H136.333V89.2891H139.137V86.4851Z" fill="#899CAF"/>
<path opacity="0.2" d="M149.995 86.4851H147.191V89.2891H149.995V86.4851Z" fill="#899CAF"/>
<path opacity="0.2" d="M160.852 86.4851H158.048V89.2891H160.852V86.4851Z" fill="#899CAF"/>
<path opacity="0.2" d="M171.71 86.4851H168.906V89.2891H171.71V86.4851Z" fill="#899CAF"/>
<path opacity="0.2" d="M182.568 86.4851H179.764V89.2891H182.568V86.4851Z" fill="#899CAF"/>
<path opacity="0.2" d="M193.426 86.4851H190.622V89.2891H193.426V86.4851Z" fill="#899CAF"/>
<path opacity="0.2" d="M204.283 86.4851H201.479V89.2891H204.283V86.4851Z" fill="#899CAF"/>
<path opacity="0.2" d="M215.141 86.4851H212.337V89.2891H215.141V86.4851Z" fill="#899CAF"/>
<path opacity="0.2" d="M225.999 86.4851H223.195V89.2891H225.999V86.4851Z" fill="#899CAF"/>
<path opacity="0.2" d="M236.856 86.4851H234.052V89.2891H236.856V86.4851Z" fill="#899CAF"/>
<path opacity="0.2" d="M247.714 86.4851H244.91V89.2891H247.714V86.4851Z" fill="#899CAF"/>
<path opacity="0.2" d="M258.572 86.4851H255.768V89.2891H258.572V86.4851Z" fill="#899CAF"/>
<path opacity="0.2" d="M269.43 86.4851H266.626V89.2891H269.43V86.4851Z" fill="#899CAF"/>
<path opacity="0.2" d="M280.287 86.4851H277.483V89.2891H280.287V86.4851Z" fill="#899CAF"/>
<path opacity="0.2" d="M291.145 86.4851H288.341V89.2891H291.145V86.4851Z" fill="#899CAF"/>
<path opacity="0.2" d="M302.003 86.4851H299.199V89.2891H302.003V86.4851Z" fill="#899CAF"/>
<path opacity="0.2" d="M312.86 86.4851H310.056V89.2891H312.86V86.4851Z" fill="#899CAF"/>
<path opacity="0.2" d="M323.718 86.4851H320.914V89.2891H323.718V86.4851Z" fill="#899CAF"/>
<path opacity="0.2" d="M334.576 86.4851H331.772V89.2891H334.576V86.4851Z" fill="#899CAF"/>
<path opacity="0.2" d="M345.433 86.4851H342.629V89.2891H345.433V86.4851Z" fill="#899CAF"/>
<path opacity="0.2" d="M356.291 86.4851H353.487V89.2891H356.291V86.4851Z" fill="#899CAF"/>
<path opacity="0.2" d="M367.149 86.4851H364.345V89.2891H367.149V86.4851Z" fill="#899CAF"/>
<path opacity="0.2" d="M378.007 86.4851H375.203V89.2891H378.007V86.4851Z" fill="#899CAF"/>
<path opacity="0.2" d="M388.864 86.4851H386.06V89.2891H388.864V86.4851Z" fill="#899CAF"/>
<path opacity="0.2" d="M399.722 86.4851H396.918V89.2891H399.722V86.4851Z" fill="#899CAF"/>
<path opacity="0.2" d="M410.58 86.4851H407.776V89.2891H410.58V86.4851Z" fill="#899CAF"/>
<path opacity="0.2" d="M421.437 86.4851H418.633V89.2891H421.437V86.4851Z" fill="#899CAF"/>
<path opacity="0.2" d="M432.295 86.4851H429.491V89.2891H432.295V86.4851Z" fill="#899CAF"/>
<path opacity="0.2" d="M443.153 86.4851H440.349V89.2891H443.153V86.4851Z" fill="#899CAF"/>
<path opacity="0.2" d="M52.2751 94.3472H49.4711V97.1512H52.2751V94.3472Z" fill="#899CAF"/>
<path opacity="0.2" d="M63.1331 94.3472H60.3291V97.1512H63.1331V94.3472Z" fill="#899CAF"/>
<path opacity="0.2" d="M73.991 94.3472H71.187V97.1512H73.991V94.3472Z" fill="#899CAF"/>
<path opacity="0.2" d="M84.8481 94.3472H82.0441V97.1512H84.8481V94.3472Z" fill="#899CAF"/>
<path opacity="0.2" d="M95.7061 94.3472H92.9021V97.1512H95.7061V94.3472Z" fill="#899CAF"/>
<path opacity="0.2" d="M106.564 94.3472H103.76V97.1512H106.564V94.3472Z" fill="#899CAF"/>
<path opacity="0.2" d="M117.422 94.3472H114.618V97.1512H117.422V94.3472Z" fill="#899CAF"/>
<path opacity="0.2" d="M128.279 94.3472H125.475V97.1512H128.279V94.3472Z" fill="#899CAF"/>
<path opacity="0.2" d="M139.137 94.3472H136.333V97.1512H139.137V94.3472Z" fill="#899CAF"/>
<path opacity="0.2" d="M149.995 94.3472H147.191V97.1512H149.995V94.3472Z" fill="#899CAF"/>
<path opacity="0.2" d="M160.852 94.3472H158.048V97.1512H160.852V94.3472Z" fill="#899CAF"/>
<path opacity="0.2" d="M171.71 94.3472H168.906V97.1512H171.71V94.3472Z" fill="#899CAF"/>
<path opacity="0.2" d="M182.568 94.3472H179.764V97.1512H182.568V94.3472Z" fill="#899CAF"/>
<path opacity="0.2" d="M193.426 94.3472H190.622V97.1512H193.426V94.3472Z" fill="#899CAF"/>
<path opacity="0.2" d="M204.283 94.3472H201.479V97.1512H204.283V94.3472Z" fill="#899CAF"/>
<path opacity="0.2" d="M215.141 94.3472H212.337V97.1512H215.141V94.3472Z" fill="#899CAF"/>
<path opacity="0.2" d="M225.999 94.3472H223.195V97.1512H225.999V94.3472Z" fill="#899CAF"/>
<path opacity="0.2" d="M236.856 94.3472H234.052V97.1512H236.856V94.3472Z" fill="#899CAF"/>
<path opacity="0.2" d="M247.714 94.3472H244.91V97.1512H247.714V94.3472Z" fill="#899CAF"/>
<path opacity="0.2" d="M258.572 94.3472H255.768V97.1512H258.572V94.3472Z" fill="#899CAF"/>
<path opacity="0.2" d="M269.43 94.3472H266.626V97.1512H269.43V94.3472Z" fill="#899CAF"/>
<path opacity="0.2" d="M280.287 94.3472H277.483V97.1512H280.287V94.3472Z" fill="#899CAF"/>
<path opacity="0.2" d="M291.145 94.3472H288.341V97.1512H291.145V94.3472Z" fill="#899CAF"/>
<path opacity="0.2" d="M302.003 94.3472H299.199V97.1512H302.003V94.3472Z" fill="#899CAF"/>
<path opacity="0.2" d="M312.86 94.3472H310.056V97.1512H312.86V94.3472Z" fill="#899CAF"/>
<path opacity="0.2" d="M323.718 94.3472H320.914V97.1512H323.718V94.3472Z" fill="#899CAF"/>
<path opacity="0.2" d="M334.576 94.3472H331.772V97.1512H334.576V94.3472Z" fill="#899CAF"/>
<path opacity="0.2" d="M345.433 94.3472H342.629V97.1512H345.433V94.3472Z" fill="#899CAF"/>
<path opacity="0.2" d="M356.291 94.3472H353.487V97.1512H356.291V94.3472Z" fill="#899CAF"/>
<path opacity="0.2" d="M367.149 94.3472H364.345V97.1512H367.149V94.3472Z" fill="#899CAF"/>
<path opacity="0.2" d="M378.007 94.3472H375.203V97.1512H378.007V94.3472Z" fill="#899CAF"/>
<path opacity="0.2" d="M388.864 94.3472H386.06V97.1512H388.864V94.3472Z" fill="#899CAF"/>
<path opacity="0.2" d="M399.722 94.3472H396.918V97.1512H399.722V94.3472Z" fill="#899CAF"/>
<path opacity="0.2" d="M410.58 94.3472H407.776V97.1512H410.58V94.3472Z" fill="#899CAF"/>
<path opacity="0.2" d="M421.437 94.3472H418.633V97.1512H421.437V94.3472Z" fill="#899CAF"/>
<path opacity="0.2" d="M432.295 94.3472H429.491V97.1512H432.295V94.3472Z" fill="#899CAF"/>
<path opacity="0.2" d="M443.153 94.3472H440.349V97.1512H443.153V94.3472Z" fill="#899CAF"/>
<path opacity="0.2" d="M52.2751 102.21H49.4711V105.014H52.2751V102.21Z" fill="#899CAF"/>
<path opacity="0.2" d="M63.1331 102.21H60.3291V105.014H63.1331V102.21Z" fill="#899CAF"/>
<path opacity="0.2" d="M73.991 102.21H71.187V105.014H73.991V102.21Z" fill="#899CAF"/>
<path opacity="0.2" d="M84.8481 102.21H82.0441V105.014H84.8481V102.21Z" fill="#899CAF"/>
<path opacity="0.2" d="M95.7061 102.21H92.9021V105.014H95.7061V102.21Z" fill="#899CAF"/>
<path opacity="0.2" d="M106.564 102.21H103.76V105.014H106.564V102.21Z" fill="#899CAF"/>
<path opacity="0.2" d="M117.422 102.21H114.618V105.014H117.422V102.21Z" fill="#899CAF"/>
<path opacity="0.2" d="M128.279 102.21H125.475V105.014H128.279V102.21Z" fill="#899CAF"/>
<path opacity="0.2" d="M139.137 102.21H136.333V105.014H139.137V102.21Z" fill="#899CAF"/>
<path opacity="0.2" d="M149.995 102.21H147.191V105.014H149.995V102.21Z" fill="#899CAF"/>
<path opacity="0.2" d="M160.852 102.21H158.048V105.014H160.852V102.21Z" fill="#899CAF"/>
<path opacity="0.2" d="M171.71 102.21H168.906V105.014H171.71V102.21Z" fill="#899CAF"/>
<path opacity="0.2" d="M182.568 102.21H179.764V105.014H182.568V102.21Z" fill="#899CAF"/>
<path opacity="0.2" d="M193.426 102.21H190.622V105.014H193.426V102.21Z" fill="#899CAF"/>
<path opacity="0.2" d="M204.283 102.21H201.479V105.014H204.283V102.21Z" fill="#899CAF"/>
<path opacity="0.2" d="M215.141 102.21H212.337V105.014H215.141V102.21Z" fill="#899CAF"/>
<path opacity="0.2" d="M225.999 102.21H223.195V105.014H225.999V102.21Z" fill="#899CAF"/>
<path opacity="0.2" d="M236.856 102.21H234.052V105.014H236.856V102.21Z" fill="#899CAF"/>
<path opacity="0.2" d="M247.714 102.21H244.91V105.014H247.714V102.21Z" fill="#899CAF"/>
<path opacity="0.2" d="M258.572 102.21H255.768V105.014H258.572V102.21Z" fill="#899CAF"/>
<path opacity="0.2" d="M269.43 102.21H266.626V105.014H269.43V102.21Z" fill="#899CAF"/>
<path opacity="0.2" d="M280.287 102.21H277.483V105.014H280.287V102.21Z" fill="#899CAF"/>
<path opacity="0.2" d="M291.145 102.21H288.341V105.014H291.145V102.21Z" fill="#899CAF"/>
<path opacity="0.2" d="M302.003 102.21H299.199V105.014H302.003V102.21Z" fill="#899CAF"/>
<path opacity="0.2" d="M312.86 102.21H310.056V105.014H312.86V102.21Z" fill="#899CAF"/>
<path opacity="0.2" d="M323.718 102.21H320.914V105.014H323.718V102.21Z" fill="#899CAF"/>
<path opacity="0.2" d="M334.576 102.21H331.772V105.014H334.576V102.21Z" fill="#899CAF"/>
<path opacity="0.2" d="M345.433 102.21H342.629V105.014H345.433V102.21Z" fill="#899CAF"/>
<path opacity="0.2" d="M356.291 102.21H353.487V105.014H356.291V102.21Z" fill="#899CAF"/>
<path opacity="0.2" d="M367.149 102.21H364.345V105.014H367.149V102.21Z" fill="#899CAF"/>
<path opacity="0.2" d="M378.007 102.21H375.203V105.014H378.007V102.21Z" fill="#899CAF"/>
<path opacity="0.2" d="M388.864 102.21H386.06V105.014H388.864V102.21Z" fill="#899CAF"/>
<path opacity="0.2" d="M399.722 102.21H396.918V105.014H399.722V102.21Z" fill="#899CAF"/>
<path opacity="0.2" d="M410.58 102.21H407.776V105.014H410.58V102.21Z" fill="#899CAF"/>
<path opacity="0.2" d="M421.437 102.21H418.633V105.014H421.437V102.21Z" fill="#899CAF"/>
<path opacity="0.2" d="M432.295 102.21H429.491V105.014H432.295V102.21Z" fill="#899CAF"/>
<path opacity="0.2" d="M443.153 102.21H440.349V105.014H443.153V102.21Z" fill="#899CAF"/>
<path opacity="0.2" d="M52.2751 110.072H49.4711V112.876H52.2751V110.072Z" fill="#899CAF"/>
<path opacity="0.2" d="M63.1331 110.072H60.3291V112.876H63.1331V110.072Z" fill="#899CAF"/>
<path opacity="0.2" d="M73.991 110.072H71.187V112.876H73.991V110.072Z" fill="#899CAF"/>
<path opacity="0.2" d="M84.8481 110.072H82.0441V112.876H84.8481V110.072Z" fill="#899CAF"/>
<path opacity="0.2" d="M95.7061 110.072H92.9021V112.876H95.7061V110.072Z" fill="#899CAF"/>
<path opacity="0.2" d="M106.564 110.072H103.76V112.876H106.564V110.072Z" fill="#899CAF"/>
<path opacity="0.2" d="M117.422 110.072H114.618V112.876H117.422V110.072Z" fill="#899CAF"/>
<path opacity="0.2" d="M128.279 110.072H125.475V112.876H128.279V110.072Z" fill="#899CAF"/>
<path opacity="0.2" d="M139.137 110.072H136.333V112.876H139.137V110.072Z" fill="#899CAF"/>
<path opacity="0.2" d="M149.995 110.072H147.191V112.876H149.995V110.072Z" fill="#899CAF"/>
<path opacity="0.2" d="M160.852 110.072H158.048V112.876H160.852V110.072Z" fill="#899CAF"/>
<path opacity="0.2" d="M171.71 110.072H168.906V112.876H171.71V110.072Z" fill="#899CAF"/>
<path opacity="0.2" d="M182.568 110.072H179.764V112.876H182.568V110.072Z" fill="#899CAF"/>
<path opacity="0.2" d="M193.426 110.072H190.622V112.876H193.426V110.072Z" fill="#899CAF"/>
<path opacity="0.2" d="M204.283 110.072H201.479V112.876H204.283V110.072Z" fill="#899CAF"/>
<path opacity="0.2" d="M215.141 110.072H212.337V112.876H215.141V110.072Z" fill="#899CAF"/>
<path opacity="0.2" d="M225.999 110.072H223.195V112.876H225.999V110.072Z" fill="#899CAF"/>
<path opacity="0.2" d="M236.856 110.072H234.052V112.876H236.856V110.072Z" fill="#899CAF"/>
<path opacity="0.2" d="M247.714 110.072H244.91V112.876H247.714V110.072Z" fill="#899CAF"/>
<path opacity="0.2" d="M258.572 110.072H255.768V112.876H258.572V110.072Z" fill="#899CAF"/>
<path opacity="0.2" d="M269.43 110.072H266.626V112.876H269.43V110.072Z" fill="#899CAF"/>
<path opacity="0.2" d="M280.287 110.072H277.483V112.876H280.287V110.072Z" fill="#899CAF"/>
<path opacity="0.2" d="M291.145 110.072H288.341V112.876H291.145V110.072Z" fill="#899CAF"/>
<path opacity="0.2" d="M302.003 110.072H299.199V112.876H302.003V110.072Z" fill="#899CAF"/>
<path opacity="0.2" d="M312.86 110.072H310.056V112.876H312.86V110.072Z" fill="#899CAF"/>
<path opacity="0.2" d="M323.718 110.072H320.914V112.876H323.718V110.072Z" fill="#899CAF"/>
<path opacity="0.2" d="M334.576 110.072H331.772V112.876H334.576V110.072Z" fill="#899CAF"/>
<path opacity="0.2" d="M345.433 110.072H342.629V112.876H345.433V110.072Z" fill="#899CAF"/>
<path opacity="0.2" d="M356.291 110.072H353.487V112.876H356.291V110.072Z" fill="#899CAF"/>
<path opacity="0.2" d="M367.149 110.072H364.345V112.876H367.149V110.072Z" fill="#899CAF"/>
<path opacity="0.2" d="M378.007 110.072H375.203V112.876H378.007V110.072Z" fill="#899CAF"/>
<path opacity="0.2" d="M388.864 110.072H386.06V112.876H388.864V110.072Z" fill="#899CAF"/>
<path opacity="0.2" d="M399.722 110.072H396.918V112.876H399.722V110.072Z" fill="#899CAF"/>
<path opacity="0.2" d="M410.58 110.072H407.776V112.876H410.58V110.072Z" fill="#899CAF"/>
<path opacity="0.2" d="M421.437 110.072H418.633V112.876H421.437V110.072Z" fill="#899CAF"/>
<path opacity="0.2" d="M432.295 110.072H429.491V112.876H432.295V110.072Z" fill="#899CAF"/>
<path opacity="0.2" d="M443.153 110.072H440.349V112.876H443.153V110.072Z" fill="#899CAF"/>
<path opacity="0.2" d="M52.2751 117.934H49.4711V120.738H52.2751V117.934Z" fill="#899CAF"/>
<path opacity="0.2" d="M63.1331 117.934H60.3291V120.738H63.1331V117.934Z" fill="#899CAF"/>
<path opacity="0.2" d="M73.991 117.934H71.187V120.738H73.991V117.934Z" fill="#899CAF"/>
<path opacity="0.2" d="M84.8481 117.934H82.0441V120.738H84.8481V117.934Z" fill="#899CAF"/>
<path opacity="0.2" d="M95.7061 117.934H92.9021V120.738H95.7061V117.934Z" fill="#899CAF"/>
<path opacity="0.2" d="M106.564 117.934H103.76V120.738H106.564V117.934Z" fill="#899CAF"/>
<path opacity="0.2" d="M117.422 117.934H114.618V120.738H117.422V117.934Z" fill="#899CAF"/>
<path opacity="0.2" d="M128.279 117.934H125.475V120.738H128.279V117.934Z" fill="#899CAF"/>
<path opacity="0.2" d="M139.137 117.934H136.333V120.738H139.137V117.934Z" fill="#899CAF"/>
<path opacity="0.2" d="M149.995 117.934H147.191V120.738H149.995V117.934Z" fill="#899CAF"/>
<path opacity="0.2" d="M160.852 117.934H158.048V120.738H160.852V117.934Z" fill="#899CAF"/>
<path opacity="0.2" d="M171.71 117.934H168.906V120.738H171.71V117.934Z" fill="#899CAF"/>
<path opacity="0.2" d="M182.568 117.934H179.764V120.738H182.568V117.934Z" fill="#899CAF"/>
<path opacity="0.2" d="M193.426 117.934H190.622V120.738H193.426V117.934Z" fill="#899CAF"/>
<path opacity="0.2" d="M204.283 117.934H201.479V120.738H204.283V117.934Z" fill="#899CAF"/>
<path opacity="0.2" d="M215.141 117.934H212.337V120.738H215.141V117.934Z" fill="#899CAF"/>
<path opacity="0.2" d="M225.999 117.934H223.195V120.738H225.999V117.934Z" fill="#899CAF"/>
<path opacity="0.2" d="M236.856 117.934H234.052V120.738H236.856V117.934Z" fill="#899CAF"/>
<path opacity="0.2" d="M247.714 117.934H244.91V120.738H247.714V117.934Z" fill="#899CAF"/>
<path opacity="0.2" d="M258.572 117.934H255.768V120.738H258.572V117.934Z" fill="#899CAF"/>
<path opacity="0.2" d="M269.43 117.934H266.626V120.738H269.43V117.934Z" fill="#899CAF"/>
<path opacity="0.2" d="M280.287 117.934H277.483V120.738H280.287V117.934Z" fill="#899CAF"/>
<path opacity="0.2" d="M291.145 117.934H288.341V120.738H291.145V117.934Z" fill="#899CAF"/>
<path opacity="0.2" d="M302.003 117.934H299.199V120.738H302.003V117.934Z" fill="#899CAF"/>
<path opacity="0.2" d="M312.86 117.934H310.056V120.738H312.86V117.934Z" fill="#899CAF"/>
<path opacity="0.2" d="M323.718 117.934H320.914V120.738H323.718V117.934Z" fill="#899CAF"/>
<path opacity="0.2" d="M334.576 117.934H331.772V120.738H334.576V117.934Z" fill="#899CAF"/>
<path opacity="0.2" d="M345.433 117.934H342.629V120.738H345.433V117.934Z" fill="#899CAF"/>
<path opacity="0.2" d="M356.291 117.934H353.487V120.738H356.291V117.934Z" fill="#899CAF"/>
<path opacity="0.2" d="M367.149 117.934H364.345V120.738H367.149V117.934Z" fill="#899CAF"/>
<path opacity="0.2" d="M378.007 117.934H375.203V120.738H378.007V117.934Z" fill="#899CAF"/>
<path opacity="0.2" d="M388.864 117.934H386.06V120.738H388.864V117.934Z" fill="#899CAF"/>
<path opacity="0.2" d="M399.722 117.934H396.918V120.738H399.722V117.934Z" fill="#899CAF"/>
<path opacity="0.2" d="M410.58 117.934H407.776V120.738H410.58V117.934Z" fill="#899CAF"/>
<path opacity="0.2" d="M421.437 117.934H418.633V120.738H421.437V117.934Z" fill="#899CAF"/>
<path opacity="0.2" d="M432.295 117.934H429.491V120.738H432.295V117.934Z" fill="#899CAF"/>
<path opacity="0.2" d="M443.153 117.934H440.349V120.738H443.153V117.934Z" fill="#899CAF"/>
<path opacity="0.2" d="M52.2751 125.797H49.4711V128.601H52.2751V125.797Z" fill="#899CAF"/>
<path opacity="0.2" d="M63.1331 125.797H60.3291V128.601H63.1331V125.797Z" fill="#899CAF"/>
<path opacity="0.2" d="M73.991 125.797H71.187V128.601H73.991V125.797Z" fill="#899CAF"/>
<path opacity="0.2" d="M84.8481 125.797H82.0441V128.601H84.8481V125.797Z" fill="#899CAF"/>
<path opacity="0.2" d="M95.7061 125.797H92.9021V128.601H95.7061V125.797Z" fill="#899CAF"/>
<path opacity="0.2" d="M106.564 125.797H103.76V128.601H106.564V125.797Z" fill="#899CAF"/>
<path opacity="0.2" d="M117.422 125.797H114.618V128.601H117.422V125.797Z" fill="#899CAF"/>
<path opacity="0.2" d="M128.279 125.797H125.475V128.601H128.279V125.797Z" fill="#899CAF"/>
<path opacity="0.2" d="M139.137 125.797H136.333V128.601H139.137V125.797Z" fill="#899CAF"/>
<path opacity="0.2" d="M149.995 125.797H147.191V128.601H149.995V125.797Z" fill="#899CAF"/>
<path opacity="0.2" d="M160.852 125.797H158.048V128.601H160.852V125.797Z" fill="#899CAF"/>
<path opacity="0.2" d="M171.71 125.797H168.906V128.601H171.71V125.797Z" fill="#899CAF"/>
<path opacity="0.2" d="M182.568 125.797H179.764V128.601H182.568V125.797Z" fill="#899CAF"/>
<path opacity="0.2" d="M193.426 125.797H190.622V128.601H193.426V125.797Z" fill="#899CAF"/>
<path opacity="0.2" d="M204.283 125.797H201.479V128.601H204.283V125.797Z" fill="#899CAF"/>
<path opacity="0.2" d="M215.141 125.797H212.337V128.601H215.141V125.797Z" fill="#899CAF"/>
<path opacity="0.2" d="M225.999 125.797H223.195V128.601H225.999V125.797Z" fill="#899CAF"/>
<path opacity="0.2" d="M236.856 125.797H234.052V128.601H236.856V125.797Z" fill="#899CAF"/>
<path opacity="0.2" d="M247.714 125.797H244.91V128.601H247.714V125.797Z" fill="#899CAF"/>
<path opacity="0.2" d="M258.572 125.797H255.768V128.601H258.572V125.797Z" fill="#899CAF"/>
<path opacity="0.2" d="M269.43 125.797H266.626V128.601H269.43V125.797Z" fill="#899CAF"/>
<path opacity="0.2" d="M280.287 125.797H277.483V128.601H280.287V125.797Z" fill="#899CAF"/>
<path opacity="0.2" d="M291.145 125.797H288.341V128.601H291.145V125.797Z" fill="#899CAF"/>
<path opacity="0.2" d="M302.003 125.797H299.199V128.601H302.003V125.797Z" fill="#899CAF"/>
<path opacity="0.2" d="M312.86 125.797H310.056V128.601H312.86V125.797Z" fill="#899CAF"/>
<path opacity="0.2" d="M323.718 125.797H320.914V128.601H323.718V125.797Z" fill="#899CAF"/>
<path opacity="0.2" d="M334.576 125.797H331.772V128.601H334.576V125.797Z" fill="#899CAF"/>
<path opacity="0.2" d="M345.433 125.797H342.629V128.601H345.433V125.797Z" fill="#899CAF"/>
<path opacity="0.2" d="M356.291 125.797H353.487V128.601H356.291V125.797Z" fill="#899CAF"/>
<path opacity="0.2" d="M367.149 125.797H364.345V128.601H367.149V125.797Z" fill="#899CAF"/>
<path opacity="0.2" d="M378.007 125.797H375.203V128.601H378.007V125.797Z" fill="#899CAF"/>
<path opacity="0.2" d="M388.864 125.797H386.06V128.601H388.864V125.797Z" fill="#899CAF"/>
<path opacity="0.2" d="M399.722 125.797H396.918V128.601H399.722V125.797Z" fill="#899CAF"/>
<path opacity="0.2" d="M410.58 125.797H407.776V128.601H410.58V125.797Z" fill="#899CAF"/>
<path opacity="0.2" d="M421.437 125.797H418.633V128.601H421.437V125.797Z" fill="#899CAF"/>
<path opacity="0.2" d="M432.295 125.797H429.491V128.601H432.295V125.797Z" fill="#899CAF"/>
<path opacity="0.2" d="M443.153 125.797H440.349V128.601H443.153V125.797Z" fill="#899CAF"/>
<path d="M491.084 49.9761H0V64.2991H491.084V49.9761Z" fill="#FEB127"/>
<path d="M437.956 3.16259C425.378 1.75693 416.995 9.85788 414.73 12.3673C414.556 12.563 414.316 12.6852 414.057 12.7093C413.798 12.7335 413.54 12.6578 413.334 12.4974L404.952 6.11453C404.952 6.11453 403.665 6.00001 403.083 6.66643C402.501 7.33279 405.225 19 405.225 19C405.225 19 402.496 30.662 403.083 31.3336C403.67 32.0052 404.952 31.8855 404.952 31.8855L413.334 25.5026C413.54 25.3422 413.798 25.2665 414.057 25.2907C414.316 25.3148 414.556 25.437 414.73 25.6327C416.995 28.1422 425.378 36.2431 437.956 34.8374C452.806 33.1818 459 19 459 19C459 19 452.806 4.81823 437.956 3.16259ZM443.023 23.9876C441.954 23.9876 440.908 23.667 440.019 23.0663C439.13 22.4656 438.437 21.6119 438.028 20.613C437.619 19.6141 437.512 18.515 437.72 17.4546C437.929 16.3942 438.444 15.4201 439.2 14.6556C439.956 13.8911 440.919 13.3705 441.968 13.1595C443.017 12.9486 444.104 13.0568 445.092 13.4706C446.08 13.8843 446.924 14.585 447.518 15.484C448.112 16.3829 448.429 17.4399 448.429 18.5211C448.431 19.2396 448.292 19.9512 448.021 20.6154C447.749 21.2796 447.351 21.883 446.849 22.3913C446.347 22.8997 445.75 23.3028 445.094 23.5776C444.437 23.8524 443.733 23.9935 443.023 23.9928V23.9876Z" fill="#FEB127"/>
</g>
<defs>
<clipPath id="clip0_408_25">
<rect width="491.084" height="128.6" fill="white"/>
</clipPath>
</defs>
</svg>
