<svg width="86" height="86" viewBox="0 0 86 86" fill="none" xmlns="http://www.w3.org/2000/svg">
<path d="M53.683 19.0612C34.3655 16.9108 21.4925 29.3037 18.0133 33.1426C17.747 33.442 17.3781 33.6289 16.9806 33.6659C16.5832 33.7028 16.1866 33.587 15.8704 33.3417L2.99734 23.5771C2.99734 23.5771 1.02057 23.4019 0.127049 24.4214C-0.766473 25.4408 3.41645 43.2894 3.41645 43.2894C3.41645 43.2894 -0.77438 61.13 0.127049 62.1574C1.02848 63.1849 2.99734 63.0017 2.99734 63.0017L15.8704 53.2371C16.1866 52.9918 16.5832 52.876 16.9806 52.913C17.3781 52.9499 17.747 53.1368 18.0133 53.4362C21.4925 57.2752 34.3655 69.668 53.683 67.5176C76.4876 64.9849 86 43.2894 86 43.2894C86 43.2894 76.4876 21.594 53.683 19.0612ZM61.4637 50.9195C59.8216 50.9195 58.2164 50.429 56.8511 49.5101C55.4857 48.5911 54.4215 47.2851 53.7931 45.757C53.1647 44.2289 53.0003 42.5474 53.3206 40.9252C53.641 39.303 54.4317 37.8129 55.5929 36.6433C56.754 35.4737 58.2334 34.6773 59.844 34.3546C61.4545 34.0319 63.1239 34.1975 64.641 34.8305C66.1581 35.4634 67.4548 36.5353 68.3671 37.9106C69.2794 39.2858 69.7663 40.9027 69.7663 42.5567C69.7684 43.6559 69.5552 44.7446 69.1387 45.7607C68.7223 46.7767 68.111 47.6999 67.3397 48.4775C66.5684 49.2552 65.6524 49.8718 64.6441 50.2922C63.6358 50.7126 62.555 50.9285 61.4637 50.9274V50.9195Z" fill="white"/>
</svg>
