<svg id="Componente_19_1" data-name="Componente 19 – 1" xmlns="http://www.w3.org/2000/svg" width="74.384" height="23.072" viewBox="0 0 74.384 23.072">
  <defs>
    <style>
      .cls-1 {
        fill: #feb127;
      }
    </style>
  </defs>
  <path id="Trazado_147" data-name="Trazado 147" class="cls-1" d="M666.462,4657.369c2.942-.081,5.891-.147,8.831,0a16.5,16.5,0,0,1,1.744.179,50.258,50.258,0,0,1,6.815,1.778,35.2,35.2,0,0,1,4.9,1.929,31.247,31.247,0,0,1,4.873,3.718,1.334,1.334,0,0,0,.176.131c.043.029-.084-.05-.082-.076a.171.171,0,0,1-.026-.061c-.006-.033,0-.006-.006.015s-.008.052-.015.082a10.914,10.914,0,0,1-.808,1.976,10.026,10.026,0,0,1-.879,1.471c-.17.229-.352.434-.552.674a1.07,1.07,0,0,0-.234.4c-.092.384.248.59.542.705.515.24,1.95,1.08,1.691,1.707-.588.654-3,.134-3.609,1a13.271,13.271,0,0,1-1.49.836c-1.573.785-3.184,1.5-4.8,2.193a44.487,44.487,0,0,1-7.406,2.6,1.855,1.855,0,0,1-.778.02,9.557,9.557,0,0,1-3.625-3.214,7.539,7.539,0,0,1-1.641-4.166,32.347,32.347,0,0,1,.89-7.315c.295-1.058.885-2.99,2.015-3.3a27.457,27.457,0,0,1,4.051-.285c2.281,0,7.24.125,8.769,1.913a1.4,1.4,0,0,1,.318.882,5.29,5.29,0,0,1-.088,1.191,5.154,5.154,0,0,1-4.188,4.251c-1.89.173-4.291-1.994-4.8-3.735a1.478,1.478,0,0,1,.092-1.324l-.127.091c.249-.111.52-.217.785-.316,1.356-.482,3.514-1.14,4.819-.342a2.231,2.231,0,0,1,.787,2.118,2.1,2.1,0,0,1-2.428,1.659,1.823,1.823,0,0,1-1.442-.725l-.1.056c.6,1.045,2.335,1.123,3.3.572a2.541,2.541,0,0,0,.809-3.344,2.275,2.275,0,0,0-1.51-1.154,9.683,9.683,0,0,0-5.315.791l-.069.028a2.143,2.143,0,0,0-.371,2.107,6.93,6.93,0,0,0,3.681,4.116c2.5,1.249,5.376-.557,6.536-2.82a6.63,6.63,0,0,0,.783-2.768,4,4,0,0,0-.054-1.037,2.575,2.575,0,0,0-.486-1.022c-2.242-2.844-10.525-2.618-13.883-2.086-3.368.6-3.705,8.577-3.778,11.337a6.127,6.127,0,0,0,.2,1.891,11.526,11.526,0,0,0,2.866,4.688,10.26,10.26,0,0,0,2.151,1.751,3.809,3.809,0,0,0,.894.385c1.224.253,4.131-.955,5.377-1.408,2.758-1.087,5.464-2.286,8.106-3.629.4-.207.8-.417,1.184-.651a2.1,2.1,0,0,0,.55-.423.346.346,0,0,1,.121-.085c.957-.349,2.083-.127,3.033-.578a1.042,1.042,0,0,0,.341-1.6,4.954,4.954,0,0,0-2.072-1.5.319.319,0,0,1-.044-.027c-.007,0,0,0,.019.032a.155.155,0,0,1,.01.09c0,.011,0,0,.009-.018.189-.279.452-.541.66-.841a7.836,7.836,0,0,0,.5-.773,12.815,12.815,0,0,0,1.249-2.922.608.608,0,0,0-.034-.453c-.007-.041-.15-.131-.122-.111l.006,0-.017-.012a32.534,32.534,0,0,0-5.086-3.763,47.563,47.563,0,0,0-8.407-2.852,29.176,29.176,0,0,0-4.363-.831c-.877-.068-1.783-.089-2.66-.094-2.362-.007-4.719.071-7.077.182Z" transform="translate(-619.861 -4657.068)"/>
  <path id="Trazado_148" data-name="Trazado 148" class="cls-1" d="M671.157,4679.624c-8.03,1.372-20.937-2.239-28.724-4.894-.259-.094-.519-.188-.77-.3-1.748-.9-3.443-1.927-5.152-2.907l-.057-.033-.066-.01c-1.216-.183-2.427-.335-3.656-.43a16.929,16.929,0,0,0-1.87-.053,3.432,3.432,0,0,0-1.227.234c-.207.071-.417.131-.631.19-2.338.626-4.722,1.127-7.09,1.639l.347.807c1.767-1.205,3.537-2.4,5.2-3.748a3.967,3.967,0,0,0,.873-.9c.337-.675-.468-1.5-.849-1.969A53.638,53.638,0,0,0,623,4663a.5.5,0,0,1-.248.745c-.008,0-.033.007-.023.007a3.612,3.612,0,0,1,.614.066,32.269,32.269,0,0,1,5.117,1.49,18.374,18.374,0,0,1,2.205.985c1.6.8,3.495.4,5.119-.026a27.319,27.319,0,0,0,5.159-2.092l.209-.113.11-.061.076-.046c5.961-2.115,12.291-4.233,18.527-5.827a25.115,25.115,0,0,1,3.555-.663l0-.118a21.441,21.441,0,0,0-3.177.346c-1.348.235-2.688.522-4.019.832-5.16,1.245-10.271,2.7-15.3,4.419a1.794,1.794,0,0,0-.185.09,28.313,28.313,0,0,1-3.583,1.548,16.715,16.715,0,0,1-3.388.875,6.113,6.113,0,0,1-1.645.025,2.82,2.82,0,0,1-1.082-.377,18.945,18.945,0,0,0-2.153-.935,31.049,31.049,0,0,0-5.362-1.486,2.873,2.873,0,0,0-1.1-.024.635.635,0,0,0-.409.886,1.444,1.444,0,0,0,.406.437l.347.3c.921.783,1.831,1.572,2.7,2.391.434.411.86.829,1.251,1.261a4.155,4.155,0,0,1,.689.936c.015.03,0,.049.012-.028a.328.328,0,0,1,.024-.07c.005-.009,0-.009,0-.007a9.361,9.361,0,0,1-1.309,1.172c-1.418,1.114-2.9,2.163-4.382,3.194l-1.9,1.313,2.243-.5c1.786-.406,3.567-.819,5.342-1.268a27.574,27.574,0,0,0,2.68-.774,2.92,2.92,0,0,1,.775-.121,16.121,16.121,0,0,1,1.78.029c1.2.077,2.408.212,3.6.376l-.123-.043c1.651.927,3.293,1.865,4.975,2.74a4.473,4.473,0,0,0,.55.241,104.977,104.977,0,0,0,11.489,3.215,66.009,66.009,0,0,0,13.484,1.807,22.314,22.314,0,0,0,4.523-.4Z" transform="translate(-619.861 -4657.068)"/>
</svg>
