<svg xmlns="http://www.w3.org/2000/svg" width="41.51" height="24.067" viewBox="0 0 41.51 24.067">
  <defs>
    <style>
      .cls-1 {
        fill: none;
        stroke: #feb127;
        stroke-linecap: round;
        stroke-miterlimit: 10;
        stroke-width: 2px;
      }
    </style>
  </defs>
  <g id="Componente_13" data-name="Componente 13" transform="translate(1.014 1)">
    <path id="Trazado_131" data-name="Trazado 131" class="cls-1" d="M1207.368,1018.21s7.338,1.56,7.382-5.44c.03-4.589-6.7-6.412-10.353-4.294-4.657,2.7-6.794,13.764,1.423,14.912,9.335,1.3,17.067-8.777,17.067-10.971s-7.642-10.971-17.067-10.971c-6.169,0-11.557,3.755-14.555,6.969l-5.988-4.53a1.141,1.141,0,0,0-1.861,1.006l1.658,7.526-1.659,7.526a1.141,1.141,0,0,0,1.861,1.006l5.988-4.529" transform="translate(-1183.391 -1001.446)"/>
  </g>
</svg>
