<svg width="64" height="64" viewBox="0 0 64 64" fill="none" xmlns="http://www.w3.org/2000/svg">
<path fill-rule="evenodd" clip-rule="evenodd" d="M50.8074 32L32.3328 64L13.8581 32C11.9858 28.757 11 25.0782 11 21.3335C11 17.5887 11.9856 13.91 13.858 10.6669C15.7303 7.42384 18.4233 4.73076 21.6663 2.85833C24.9093 0.985904 28.5881 9.51298e-05 32.3328 0C36.0775 9.51298e-05 39.7562 0.985904 42.9992 2.85833C46.2422 4.73076 48.9353 7.42384 50.8076 10.6669C52.6799 13.91 53.6656 17.5887 53.6656 21.3335C53.6656 25.0782 52.6798 28.757 50.8074 32ZM29.2249 13.9794C33.3743 12.2606 38.1315 14.2311 39.8502 18.3805C41.569 22.53 39.5985 27.2871 35.4491 29.0058C31.2996 30.7246 26.5425 28.7541 24.8238 24.6047C23.105 20.4552 25.0755 15.6981 29.2249 13.9794Z" fill="#FEB127"/>
</svg>
