<svg width="70" height="32" viewBox="0 0 70 32" fill="none" xmlns="http://www.w3.org/2000/svg">
<path d="M38.991 21.764C38.991 21.764 46.329 23.324 46.373 16.324C46.403 11.735 39.6729 9.91203 36.0199 12.03C31.3629 14.73 29.2259 25.794 37.4429 26.942C46.7779 28.242 54.5099 18.165 54.5099 15.971C54.5099 13.777 46.8679 5 37.4429 5C31.2739 5 25.886 8.75499 22.888 11.969L16.9 7.43903C16.7248 7.2942 16.5103 7.20496 16.2841 7.1828C16.0579 7.16064 15.8302 7.20655 15.6303 7.31464C15.4304 7.42272 15.2673 7.5881 15.1619 7.78949C15.0566 7.99088 15.0138 8.21912 15.039 8.44501L16.6969 15.971L15.038 23.497C15.0128 23.7229 15.0556 23.9512 15.1609 24.1526C15.2663 24.354 15.4294 24.5193 15.6293 24.6274C15.8293 24.7355 16.0569 24.7814 16.2831 24.7592C16.5093 24.7371 16.7238 24.6478 16.899 24.503L22.887 19.974" stroke="#FEB127" stroke-width="2" stroke-miterlimit="10" stroke-linecap="round"/>
</svg>
