<svg width="146" height="65" viewBox="0 0 146 65" fill="none" xmlns="http://www.w3.org/2000/svg">
<path d="M83.683 8.24874C64.3655 6.09834 51.4925 18.4912 48.0133 22.3301C47.747 22.6295 47.3781 22.8164 46.9806 22.8534C46.5832 22.8903 46.1866 22.7745 45.8704 22.5292L32.9973 12.7646C32.9973 12.7646 31.0206 12.5894 30.127 13.6089C29.2335 14.6283 33.4165 32.4769 33.4165 32.4769C33.4165 32.4769 29.2256 50.3175 30.127 51.3449C31.0285 52.3724 32.9973 52.1892 32.9973 52.1892L45.8704 42.4246C46.1866 42.1793 46.5832 42.0635 46.9806 42.1005C47.3781 42.1374 47.747 42.3243 48.0133 42.6237C51.4925 46.4627 64.3655 58.8555 83.683 56.7051C106.488 54.1724 116 32.4769 116 32.4769C116 32.4769 106.488 10.7815 83.683 8.24874ZM91.4637 40.107C89.8216 40.107 88.2164 39.6165 86.8511 38.6976C85.4857 37.7786 84.4215 36.4726 83.7931 34.9445C83.1647 33.4164 83.0003 31.7349 83.3206 30.1127C83.641 28.4905 84.4317 27.0004 85.5929 25.8308C86.754 24.6612 88.2334 23.8648 89.844 23.5421C91.4545 23.2194 93.1239 23.385 94.641 24.018C96.1581 24.6509 97.4548 25.7228 98.3671 27.0981C99.2794 28.4733 99.7663 30.0902 99.7663 31.7442C99.7684 32.8434 99.5552 33.9321 99.1387 34.9482C98.7223 35.9642 98.111 36.8874 97.3397 37.665C96.5684 38.4427 95.6524 39.0593 94.6441 39.4797C93.6358 39.9001 92.555 40.116 91.4637 40.1149V40.107Z" fill="#FEB127"/>
</svg>
