<svg width="33" height="32" viewBox="0 0 33 32" fill="none" xmlns="http://www.w3.org/2000/svg">
<g clip-path="url(#clip0_324_6)">
<path d="M23.88 10.537V6.78201C23.88 6.13117 23.6215 5.50694 23.1613 5.04672C22.701 4.58651 22.0767 4.32797 21.4259 4.32797H19.304V1.81796C19.3034 1.60118 19.2171 1.39343 19.0638 1.24014C18.9106 1.08685 18.7027 1.0005 18.486 0.999969H16.7939C16.5772 1.0005 16.3695 1.08685 16.2162 1.24014C16.0629 1.39343 15.9765 1.60118 15.976 1.81796V4.32797H9.31995V1.81796C9.31942 1.60118 9.23312 1.39343 9.07983 1.24014C8.92654 1.08685 8.71874 1.0005 8.50195 0.999969H6.80994C6.59315 1.0005 6.38547 1.08685 6.23218 1.24014C6.07889 1.39343 5.99247 1.60118 5.99194 1.81796V4.32797H3.45398C2.80314 4.32797 2.17896 4.58651 1.71875 5.04672C1.25854 5.50694 1 6.13117 1 6.78201V24.754C1 25.4048 1.25854 26.029 1.71875 26.4892C2.17896 26.9494 2.80314 27.208 3.45398 27.208H11.4149" stroke="white" stroke-width="2" stroke-miterlimit="10" stroke-linecap="round"/>
<path d="M31.5769 21.61C31.5769 17.192 27.123 14.868 22.705 14.868C21.6544 14.868 20.614 15.0749 19.6434 15.477C18.6728 15.879 17.791 16.4683 17.0481 17.2112C16.3052 17.954 15.716 18.8359 15.314 19.8065C14.9119 20.7772 14.705 21.8174 14.705 22.868C14.705 23.9186 14.9119 24.9589 15.314 25.9295C15.716 26.9001 16.3052 27.7819 17.0481 28.5248C17.791 29.2677 18.6728 29.857 19.6434 30.2591C20.614 30.6611 21.6544 30.868 22.705 30.868C26.705 30.868 28.005 28.095 28.005 25.095C28.005 19.331 24.077 19.537 22.093 19.537C19.313 19.537 17.6809 22.137 18.8719 25.625" stroke="white" stroke-width="2" stroke-miterlimit="10" stroke-linecap="round"/>
</g>
<defs>
<clipPath id="clip0_324_6">
<rect width="32.577" height="31.868" fill="white"/>
</clipPath>
</defs>
</svg>
