<svg id="Componente_21_1" data-name="Componente 21 – 1" xmlns="http://www.w3.org/2000/svg" width="27.463" height="27.457" viewBox="0 0 27.463 27.457">
  <defs>
    <style>
      .cls-1 {
        fill: #fff;
      }
    </style>
  </defs>
  <path id="Trazado_183" data-name="Trazado 183" class="cls-1" d="M375.474,6906.032a7.039,7.039,0,1,0,7.039,7.04,7.028,7.028,0,0,0-7.039-7.04m0,11.616a4.576,4.576,0,1,1,4.576-4.576,4.585,4.585,0,0,1-4.576,4.576m8.969-11.9a1.642,1.642,0,1,1-1.642-1.642,1.638,1.638,0,0,1,1.642,1.642m4.663,1.667a7.6,7.6,0,0,0-7.971-7.971c-2.267-.129-9.062-.129-11.328,0a7.6,7.6,0,0,0-7.971,7.965c-.129,2.266-.129,9.061,0,11.328a7.6,7.6,0,0,0,7.971,7.971c2.266.128,9.061.128,11.328,0a7.6,7.6,0,0,0,7.971-7.971c.128-2.267.128-9.055,0-11.322m-2.929,13.754a4.632,4.632,0,0,1-2.61,2.61c-1.807.717-6.1.551-8.093.551s-6.292.16-8.094-.551a4.636,4.636,0,0,1-2.61-2.61c-.716-1.807-.551-6.1-.551-8.093s-.159-6.292.551-8.094a4.632,4.632,0,0,1,2.61-2.61c1.808-.716,6.1-.551,8.094-.551s6.292-.159,8.093.551a4.633,4.633,0,0,1,2.61,2.61c.717,1.808.551,6.1.551,8.094s.166,6.292-.551,8.093" transform="translate(-361.739 -6899.343)"/>
</svg>
