<svg width="64" height="64" viewBox="0 0 64 64" fill="none" xmlns="http://www.w3.org/2000/svg">
<g clip-path="url(#clip0_406_21)">
<path d="M61.2691 25.9424L33.9545 0.732503C33.413 0.258961 32.7186 -0.00195312 32 -0.00195312C31.2813 -0.00195312 30.5869 0.258961 30.0454 0.732503L2.73087 25.9424C1.08839 27.4239 2.33668 29.8518 4.68543 29.8518C5.34781 29.8064 6.00134 30.0247 6.50413 30.4592C7.00691 30.8938 7.31838 31.5095 7.37089 32.1728V61.6708C7.42136 62.3356 7.73194 62.9534 8.23496 63.3897C8.73797 63.826 9.39266 64.0453 10.0564 64H18.8437C19.5068 64.0432 20.1603 63.823 20.6629 63.3872C21.1654 62.9513 21.4766 62.3347 21.5291 61.6708V38.8642C21.5817 38.2084 21.8874 37.5991 22.3812 37.1657C22.875 36.7323 23.518 36.5089 24.1735 36.5432L39.6622 36.3951C40.3239 36.3403 40.9803 36.5502 41.4881 36.9789C41.9959 37.4076 42.3138 38.0203 42.3723 38.6831V61.5226C42.4248 62.1859 42.7362 62.8017 43.239 63.2362C43.7418 63.6708 44.3953 63.889 45.0577 63.8436L53.9436 64C54.6073 64.0453 55.262 63.826 55.765 63.3897C56.268 62.9534 56.5786 62.3356 56.629 61.6708V32.1728C56.6816 31.5095 56.993 30.8938 57.4958 30.4592C57.9986 30.0247 58.6521 29.8064 59.3145 29.8518V29.8518C61.6633 29.8518 62.8705 27.4239 61.2691 25.9424Z" fill="#FEB127"/>
</g>
<defs>
<clipPath id="clip0_406_21">
<rect width="64" height="64" fill="white"/>
</clipPath>
</defs>
</svg>
