<svg width="26" height="20" viewBox="0 0 26 20" fill="none" xmlns="http://www.w3.org/2000/svg">
<path d="M23.1 0H2.39C1.75613 0 1.14823 0.251808 0.700015 0.70002C0.251803 1.14823 0 1.75614 0 2.39001L0 16.731C0 17.3649 0.251803 17.9728 0.700015 18.421C1.14823 18.8692 1.75613 19.121 2.39 19.121H23.1C23.7339 19.121 24.3418 18.8692 24.79 18.421C25.2382 17.9728 25.49 17.3649 25.49 16.731V2.39001C25.49 1.75614 25.2382 1.14823 24.79 0.70002C24.3418 0.251808 23.7339 0 23.1 0V0ZM23.1 2.39001V4.422C21.983 5.331 20.2 6.745 16.4 9.722C15.561 10.381 13.9 11.966 12.744 11.947C11.589 11.966 9.927 10.381 9.089 9.722C5.289 6.742 3.504 5.328 2.389 4.422V2.39001H23.1ZM2.39 16.731V7.48901C3.531 8.39801 5.149 9.673 7.615 11.604C8.704 12.461 10.61 14.352 12.747 14.341C14.874 14.352 16.756 12.488 17.879 11.605C20.345 9.674 21.964 8.39801 23.105 7.48901V16.731H2.39Z" fill="white"/>
</svg>
