<svg width="48" height="36" viewBox="0 0 48 36" fill="none" xmlns="http://www.w3.org/2000/svg">
<path d="M19.373 13.7915H11.273L2 34.6145H45.549L37.292 16.0725" stroke="#FEB127" stroke-width="2" stroke-miterlimit="10" stroke-linecap="round"/>
<path d="M32.816 7.9485C31.085 3.6215 25.027 5.3485 25.027 9.6795C25.027 13.6795 27.627 14.8725 30.22 14.8725C34.547 14.8725 35.689 11.4105 35.689 8.2555C35.689 6.33122 34.9246 4.48576 33.5639 3.12509C32.2032 1.76442 30.3578 1 28.4335 1C26.5092 1 24.6637 1.76442 23.3031 3.12509C21.9424 4.48576 21.178 6.33122 21.178 8.2555C21.178 11.4955 26.672 19.6555 28.489 21.7965" stroke="#FEB127" stroke-width="2" stroke-miterlimit="10" stroke-linecap="round"/>
<path d="M15.5371 13.7915C15.5371 13.7915 21.9571 17.6455 18.9771 23.0065C15.9971 28.3675 24.2081 26.5195 26.6771 27.8255C28.9901 29.0505 34.3771 34.6145 34.3771 34.6145" stroke="#FEB127" stroke-width="2" stroke-miterlimit="10" stroke-linecap="round"/>
</svg>
