<svg width="23" height="23" viewBox="0 0 23 23" fill="none" xmlns="http://www.w3.org/2000/svg">
<path d="M20.845 2.383L16.708 1.428C16.4898 1.37858 16.2612 1.40676 16.0616 1.50769C15.8619 1.60862 15.7036 1.77599 15.614 1.981L13.704 6.437C13.6225 6.62733 13.6052 6.83906 13.6548 7.04008C13.7045 7.24111 13.8183 7.42048 13.979 7.551L16.389 9.524C14.9292 12.6209 12.437 15.1132 9.34004 16.573L7.36704 14.163C7.23642 14.0024 7.05706 13.8887 6.85607 13.8391C6.65508 13.7894 6.4434 13.8066 6.25304 13.888L1.79704 15.8C1.59069 15.8899 1.42216 16.0489 1.32048 16.2497C1.21881 16.4505 1.19036 16.6805 1.24004 16.9L2.19504 21.037C2.2435 21.2475 2.36199 21.4354 2.53112 21.5698C2.70024 21.7043 2.91 21.7773 3.12604 21.777C5.55052 21.7773 7.9513 21.2999 10.1912 20.372C12.4312 19.4442 14.4663 18.0842 16.1805 16.3697C17.8947 14.6551 19.2543 12.6196 20.1816 10.3795C21.1089 8.13936 21.5858 5.73848 21.585 3.314C21.5855 3.09791 21.5125 2.88807 21.3781 2.71891C21.2436 2.54974 21.0557 2.4313 20.845 2.383Z" stroke="white" stroke-width="2" stroke-miterlimit="10"/>
</svg>
