<svg width="150" height="17" viewBox="0 0 150 17" fill="none" xmlns="http://www.w3.org/2000/svg">
<path d="M139 0H0V17H139V0Z" fill="#FEB127"/>
<path d="M11 2C14.021 2 14.021 14 17.041 14C20.061 14 20.06 2 23.08 2C26.1 2 26.1009 14 29.1219 14C32.1429 14 32.142 2 35.162 2C38.182 2 38.183 14 41.204 14C44.225 14 44.224 2 47.245 2C50.266 2 50.266 14 53.288 14C56.31 14 56.309 2 59.329 2C62.349 2 62.3509 14 65.3719 14C68.3929 14 68.394 2 71.416 2C74.438 2 74.438 14 77.459 14C80.48 14 80.4811 2 83.5031 2C86.5251 2 86.526 14 89.547 14C92.568 14 92.566 2 95.585 2C98.604 2 98.606 14 101.627 14C104.648 14 104.649 2 107.672 2C110.695 2 110.693 14 113.715 14C116.737 14 116.737 2 119.759 2C122.781 2 122.782 14 125.805 14C128.828 14 128.826 2 131.847 2C134.868 2 134.871 14 137.896 14C140.921 14 140.922 2 143.948 2C146.974 2 146.974 14 150 14" stroke="white" stroke-width="2" stroke-miterlimit="10"/>
</svg>
