<svg width="64" height="65" viewBox="0 0 64 65" fill="none" xmlns="http://www.w3.org/2000/svg">
<path fill-rule="evenodd" clip-rule="evenodd" d="M49.5549 29.9476L32.2652 59.8952L14.9834 29.9476C13.2315 26.9131 12.309 23.471 12.3086 19.9672C12.3082 16.4633 13.23 13.021 14.9813 9.98619C16.7326 6.95136 19.2517 4.43089 22.2856 2.67798C25.3195 0.925071 28.7613 0.00149038 32.2652 0C35.7697 8.90284e-05 39.2125 0.92267 42.2475 2.67501C45.2825 4.42734 47.8028 6.94767 49.555 9.98272C51.3073 13.0178 52.2297 16.4606 52.2297 19.9652C52.2297 23.4697 51.3072 26.9126 49.5549 29.9476ZM39.8759 20.0928C39.8759 24.2961 36.4685 27.7035 32.2653 27.7035C28.062 27.7035 24.6546 24.2961 24.6546 20.0928C24.6546 15.8896 28.062 12.4822 32.2653 12.4822C36.4685 12.4822 39.8759 15.8896 39.8759 20.0928Z" fill="#FEB127"/>
<path d="M32.265 64C44.5617 64 54.5301 60.0241 54.5301 55.1195C54.5301 50.215 44.5617 46.239 32.265 46.239C19.9684 46.239 10 50.215 10 55.1195C10 60.0241 19.9684 64 32.265 64Z" stroke="#FEB127" stroke-width="2" stroke-miterlimit="10" stroke-linecap="round"/>
</svg>
