<svg width="64" height="64" viewBox="0 0 64 64" fill="none" xmlns="http://www.w3.org/2000/svg">
<path d="M1.18094 2.4624C1.98959 3.16998 2.56913 3.62147 3.08128 4.14036C19.3263 20.3629 35.5668 36.5922 51.8029 52.8282C52.2848 53.2797 52.7351 53.7638 53.1506 54.2771C53.8772 55.2422 54.2158 56.4445 54.0998 57.647C53.9838 58.8495 53.4216 59.9648 52.5239 60.7733C51.6069 61.5662 50.4199 61.9756 49.209 61.9167C47.9982 61.8577 46.8565 61.3349 46.0209 60.4566C44.626 58.9403 43.413 57.2624 42.1259 55.6451C36.8427 48.9804 31.5325 42.3359 26.283 35.6443C24.8161 33.7535 22.6785 32.4989 20.3124 32.1401C17.9801 31.6667 15.8042 30.6147 13.9847 29.0807C7.92303 23.6414 3.36487 16.7322 0.749641 9.01925C0.028589 6.99761 -0.665498 4.79403 1.18094 2.4624Z" fill="#FEB127"/>
<path d="M35.9936 33.8046L31.3843 29.0874C33.5205 27.3016 33.5542 24.9632 33.0353 22.416C32.5164 19.8687 33.4868 17.8605 35.34 16.2162C40.8253 11.3239 46.3175 6.43825 51.8703 1.62675C52.4094 1.15503 53.4 1.19543 54.1817 1C53.9121 1.8154 53.8717 2.85994 53.3258 3.426C49.5993 7.28733 45.7716 11.0543 41.9642 14.8415C40.9332 15.8726 39.8213 16.8632 41.3308 18.339C42.8403 19.8148 43.8308 18.6827 44.8821 17.6651C48.5345 14.1946 52.1398 10.677 55.8798 7.30756C56.7154 6.55281 58.6832 5.65655 58.9864 5.95979C60.4083 7.38842 58.6293 8.20381 57.8341 9.06637C54.4647 12.7121 51.0346 16.2769 47.645 19.8485C46.6477 20.9065 45.1854 21.9173 46.8094 23.5481C48.5952 25.3339 49.5791 23.6222 50.6371 22.5777C54.2221 19.0331 57.733 15.4211 61.3652 11.9304C62.0391 11.3037 63.1106 11.1284 64.0001 10.7376C63.6834 11.708 63.6227 12.9008 63.0095 13.6083C58.4204 18.9185 53.6897 24.1141 49.0602 29.3839C48.2393 30.4276 47.1367 31.2145 45.8829 31.6515C44.629 32.0886 43.2762 32.1576 41.9844 31.8503C39.7606 31.4527 37.6851 31.601 35.9936 33.8046Z" fill="#FEB127"/>
<path d="M23.6684 36.0081L28.426 41.9989C22.5161 48.3401 16.7342 54.6544 10.8242 60.8338C9.03172 62.7072 5.93185 62.404 4.15955 60.5306C3.3301 59.6477 2.87854 58.4757 2.9012 57.2645C2.92387 56.0534 3.41895 54.8991 4.28084 54.0479C10.6153 48.0571 17.0442 42.1538 23.6684 36.0081Z" fill="#FEB127"/>
</svg>
