<svg width="218" height="31" viewBox="0 0 218 31" fill="none" xmlns="http://www.w3.org/2000/svg">
<g clip-path="url(#clip0_311_2)">
<path d="M16.172 0L11.134 10.048L0 11.6L8 19.5L6.03 30.559L16.012 25.391L25.928 30.684L24.1 19.593L32.2 11.793L21.083 10.111L16.172 0Z" fill="#FEB127"/>
<path d="M62.552 0L57.514 10.048L46.38 11.6L54.38 19.5L52.41 30.559L62.393 25.391L72.309 30.684L70.478 19.593L78.578 11.793L67.463 10.111L62.552 0Z" fill="#FEB127"/>
<path d="M108.932 0L103.894 10.048L92.76 11.6L100.76 19.5L98.79 30.559L108.772 25.391L118.688 30.684L116.857 19.593L124.957 11.793L113.842 10.106L108.932 0Z" fill="#FEB127"/>
<path d="M155.312 0L150.274 10.048L139.14 11.6L147.14 19.5L145.17 30.567L155.152 25.399L165.069 30.692L163.238 19.601L171.338 11.801L160.225 10.114L155.312 0Z" fill="#FEB127"/>
<path d="M201.692 0L196.655 10.048L185.521 11.6L193.521 19.5L191.552 30.567L201.534 25.399L211.45 30.692L209.619 19.601L217.719 11.801L206.6 10.111L201.692 0Z" fill="#FEB127"/>
</g>
<defs>
<clipPath id="clip0_311_2">
<rect width="217.717" height="30.684" fill="white"/>
</clipPath>
</defs>
</svg>
