<svg width="142" height="17" viewBox="0 0 142 17" fill="none" xmlns="http://www.w3.org/2000/svg">
<path d="M2 2C5.021 2 5.02102 14 8.04102 14C11.061 14 11.06 2 14.08 2C17.1 2 17.1009 14 20.1219 14C23.1429 14 23.142 2 26.162 2C29.182 2 29.183 14 32.204 14C35.225 14 35.224 2 38.245 2C41.266 2 41.266 14 44.288 14C47.31 14 47.309 2 50.329 2C53.349 2 53.3509 14 56.3719 14C59.3929 14 59.394 2 62.416 2C65.438 2 65.438 14 68.459 14C71.48 14 71.4811 2 74.5031 2C77.5251 2 77.526 14 80.547 14C83.568 14 83.566 2 86.585 2C89.604 2 89.606 14 92.627 14C95.648 14 95.649 2 98.672 2C101.695 2 101.693 14 104.715 14C107.737 14 107.737 2 110.759 2C113.781 2 113.782 14 116.805 14C119.828 14 119.826 2 122.847 2C125.868 2 125.871 14 128.896 14C131.921 14 131.922 2 134.948 2C137.974 2 137.974 14 141 14" stroke="#FEB026" stroke-width="2" stroke-miterlimit="10"/>
</svg>
