<svg width="171" height="27" viewBox="0 0 171 27" fill="none" xmlns="http://www.w3.org/2000/svg">
<path d="M170.585 10.108H4.68396V15.741H170.585V10.108Z" fill="#FEB127"/>
<path d="M26.938 13.469C26.938 16.1329 26.1481 18.737 24.6681 20.952C23.1881 23.1669 21.0845 24.8933 18.6234 25.9127C16.1622 26.9322 13.4541 27.1989 10.8413 26.6792C8.2286 26.1595 5.82866 24.8767 3.94498 22.993C2.06131 21.1093 0.778513 18.7094 0.258809 16.0967C-0.260895 13.4839 0.00583589 10.7758 1.02527 8.31464C2.04471 5.8535 3.77106 3.74993 5.98603 2.26994C8.201 0.789943 10.8051 0 13.469 0C17.0412 0 20.4671 1.41905 22.993 3.94498C25.519 6.47091 26.938 9.8968 26.938 13.469Z" fill="#FEB127"/>
<path d="M88.136 13.469C88.1362 15.2066 87.6212 16.9052 86.6559 18.3501C85.6907 19.7949 84.3187 20.921 82.7134 21.5861C81.1081 22.2511 79.3416 22.4252 77.6374 22.0862C75.9332 21.7473 74.3678 20.9106 73.1391 19.6819C71.9105 18.4533 71.0737 16.8878 70.7348 15.1836C70.3959 13.4794 70.5699 11.713 71.235 10.1077C71.9 8.50237 73.0261 7.13035 74.471 6.16512C75.9158 5.19989 77.6145 4.6848 79.352 4.685C81.6817 4.685 83.916 5.61045 85.5633 7.25777C87.2106 8.90509 88.136 11.1393 88.136 13.469" fill="#FEB127"/>
<path d="M158.94 13.4685C158.94 16.1327 158.151 18.7372 156.671 20.9526C155.191 23.1679 153.087 24.8946 150.625 25.9143C148.164 26.934 145.456 27.2009 142.843 26.6812C140.229 26.1615 137.829 24.8786 135.945 22.9947C134.061 21.1108 132.778 18.7105 132.259 16.0975C131.739 13.4844 132.006 10.7759 133.026 8.31454C134.045 5.85316 135.772 3.74945 137.987 2.26946C140.203 0.789479 142.807 -0.000303167 145.472 8.72982e-08C149.044 8.72982e-08 152.469 1.41899 154.995 3.94482C157.521 6.47064 158.94 9.8964 158.94 13.4685" fill="#FEB127"/>
<path d="M92.94 13.4685C92.9403 16.1327 92.1505 18.7372 90.6705 20.9526C89.1905 23.1679 87.0868 24.8946 84.6255 25.9143C82.1641 26.934 79.4556 27.2009 76.8425 26.6812C74.2295 26.1615 71.8292 24.8786 69.9453 22.9947C68.0614 21.1108 66.7784 18.7105 66.2587 16.0975C65.7391 13.4844 66.006 10.7759 67.0257 8.31454C68.0454 5.85316 69.7721 3.74945 71.9874 2.26946C74.2028 0.789479 76.8073 -0.000303167 79.4715 8.72982e-08C83.0436 8.72982e-08 86.4693 1.41899 88.9952 3.94482C91.521 6.47064 92.94 9.8964 92.94 13.4685" fill="#FEB127"/>
</svg>
