<svg width="44" height="41" viewBox="0 0 44 41" fill="none" xmlns="http://www.w3.org/2000/svg">
<path d="M17.7919 15.0091C19.465 15.1466 21.1452 14.8461 22.6669 14.1371C22.9023 14.0138 23.1055 13.837 23.2603 13.621C23.415 13.4049 23.517 13.1556 23.5579 12.8931L23.6469 12.9801C22.4469 12.9571 21.2469 12.9801 20.0469 13.0481C18.6919 13.1481 14.3199 13.3601 13.9729 14.8961C13.6889 15.6071 13.7279 16.2751 14.4939 16.6171C15.8939 17.2301 18.2429 16.9801 19.7709 16.8371C21.5527 16.7356 23.2818 16.1949 24.8039 15.2631C25.4773 14.8275 26.0556 14.2603 26.5043 13.5956C26.953 12.931 27.2627 12.1824 27.4149 11.3951C27.44 11.2579 27.456 11.1193 27.4629 10.9801L27.7159 11.2111L9.03389 13.4891L9.28889 13.0891C9.7465 14.2452 10.5025 15.2594 11.4799 16.0281C14.4362 18.4701 18.237 19.6464 22.0559 19.3011C22.6583 19.228 23.2436 19.0514 23.7859 18.7791C25.425 17.8463 26.8155 16.5326 27.8399 14.9491C29.2867 12.8452 30.4686 10.5711 31.3589 8.17807L31.7729 8.73407C27.2969 9.01207 22.8179 9.35207 18.3539 9.78307C14.4574 10.1024 10.5815 10.6365 6.74388 11.3831C6.2201 11.4973 5.70487 11.6476 5.20189 11.8331C4.99548 11.9019 4.80478 12.011 4.64088 12.1541C4.13044 12.7263 3.73552 13.3918 3.47789 14.1141C3.07607 15.1342 2.74823 16.1819 2.4969 17.2491C1.1879 22.8491 0.383903 31.4391 2.3549 36.8731C2.67212 37.8335 3.26811 38.6777 4.06691 39.2981C4.43123 39.5732 4.86362 39.7439 5.31764 39.7918C5.77167 39.8398 6.23017 39.7631 6.6439 39.5701C10.0349 37.3291 9.28689 25.3081 8.79689 21.4651C8.71334 20.1473 8.23647 18.8849 7.4279 17.8411C6.6659 17.0741 5.70089 17.4471 5.10689 18.2581C4.65232 18.8955 4.38432 19.6469 4.3329 20.4281L4.2559 21.2661C4.1559 22.3811 4.07288 23.4951 4.04988 24.6071C4.03988 25.1631 4.04989 25.7181 4.07789 26.2691C4.09455 27.0821 4.26417 27.8848 4.57789 28.6351C4.6829 28.8606 4.83945 29.0582 5.0349 29.2121C5.23625 29.3438 5.47253 29.4119 5.71309 29.4076C5.95364 29.4033 6.18736 29.3268 6.38389 29.1881C7.20389 28.5571 7.31189 27.1951 7.37089 26.2201C7.40583 25.1028 7.33688 23.9846 7.1649 22.8801L7.2769 22.8601C7.3849 23.4141 7.46491 23.9711 7.52391 24.5331C7.58513 25.0953 7.61582 25.6605 7.61589 26.2261C7.64748 27.0934 7.49301 27.9574 7.16289 28.7601C7.0331 29.0402 6.83962 29.2861 6.59788 29.4781C6.34055 29.6739 6.0292 29.7857 5.7061 29.7984C5.383 29.8111 5.0638 29.7241 4.79188 29.5491C4.31644 29.1568 3.98794 28.615 3.85991 28.0121C3.59138 26.8969 3.46802 25.7518 3.4929 24.6051C3.4869 23.4701 3.54489 22.3421 3.61589 21.2181C3.63254 20.639 3.69271 20.0621 3.79588 19.4921C3.9767 18.5769 4.46422 17.7508 5.1779 17.1501C6.4309 16.1801 7.8029 16.7431 8.5619 17.9981C9.6299 19.7671 9.7369 21.8801 9.9489 23.8761C10.3019 28.1811 10.6739 35.3141 8.5489 39.1171C7.3719 41.1501 5.3919 41.4611 3.4359 40.2611C-2.0161 36.5981 0.0839002 19.0881 2.4839 13.7021C2.80366 12.8365 3.29673 12.0454 3.93291 11.3771C4.19324 11.1497 4.4951 10.9748 4.82188 10.8621C5.92018 10.4968 7.04807 10.2275 8.19288 10.0571C15.9849 8.83707 23.8639 8.39107 31.7249 7.90707L32.3609 7.87207L32.1389 8.46207C31.2073 10.9178 29.9749 13.2485 28.4699 15.4011C26.9359 17.5071 24.8779 19.7011 22.1359 20.0191C18.1273 20.3624 14.1459 19.1039 11.0629 16.5191C10.003 15.6702 9.18954 14.5533 8.70689 13.2841L8.59089 12.9281L8.9619 12.8861L27.6619 10.7651L27.9269 10.7351L27.9159 10.9951C27.7922 12.2546 27.2719 13.4423 26.4299 14.3871C24.7889 16.2781 22.2109 16.9981 19.8069 17.1941C18.3419 17.3121 14.3989 17.7581 13.6349 16.2301C13.5476 15.9993 13.5086 15.7531 13.5201 15.5066C13.5316 15.2602 13.5935 15.0187 13.7019 14.7971C13.7536 14.6429 13.8248 14.4961 13.9139 14.3601C14.1154 14.1045 14.3754 13.9012 14.6719 13.7671C15.2316 13.5116 15.8212 13.3279 16.4269 13.2201C18.8158 12.8331 21.2382 12.692 23.6559 12.7991H23.7459C23.7237 13.1104 23.621 13.4106 23.4478 13.6703C23.2746 13.9299 23.0368 14.1401 22.7579 14.2801C22.2616 14.5675 21.7208 14.7703 21.1579 14.8801C20.0478 15.094 18.9163 15.1762 17.7869 15.1251L17.7919 15.0091Z" fill="#FEB127"/>
<path d="M25.3179 25.9521C23.6448 25.8146 21.9647 26.1152 20.4429 26.8241C20.2075 26.9474 20.0043 27.1241 19.8495 27.3402C19.6948 27.5562 19.5929 27.8055 19.5519 28.0681L19.4629 27.9811C20.6629 28.0041 21.8629 27.9811 23.0629 27.9131C24.4179 27.8131 28.7899 27.6011 29.1369 26.0651C29.4209 25.3541 29.3819 24.6861 28.6159 24.3441C27.2159 23.7311 24.8679 23.9811 23.3389 24.1241C21.5571 24.2255 19.828 24.7662 18.3059 25.6981C17.6326 26.1337 17.0542 26.7008 16.6055 27.3655C16.1568 28.0302 15.8471 28.7787 15.6949 29.5661C15.6698 29.7032 15.6538 29.8418 15.6469 29.9811L15.3939 29.7501L34.0839 27.4731L33.8289 27.8731C33.3713 26.7169 32.6153 25.7028 31.6379 24.9341C28.6816 22.492 24.8808 21.3158 21.0619 21.6611C20.4595 21.7341 19.8742 21.9107 19.3319 22.1831C17.6928 23.1159 16.3023 24.4295 15.2779 26.0131C13.8311 28.1169 12.6492 30.391 11.7589 32.7841L11.3449 32.2281C15.8209 31.9501 20.2999 31.6101 24.7639 31.1791C28.6604 30.8598 32.5363 30.3256 36.3739 29.5791C36.8977 29.4649 37.4129 29.3145 37.9159 29.1291C38.1223 29.0603 38.313 28.9512 38.4769 28.8081C38.9873 28.2359 39.3823 27.5703 39.6399 26.8481C40.0417 25.828 40.3696 24.7803 40.6209 23.7131C41.9299 18.1131 42.7339 9.52307 40.7629 4.08907C40.4457 3.12867 39.8497 2.28447 39.0509 1.66407C38.6866 1.38892 38.2542 1.21822 37.8002 1.1703C37.3461 1.12237 36.8876 1.19904 36.4739 1.39207C33.0839 3.63207 33.8269 15.6521 34.3169 19.4961C34.4005 20.8138 34.8773 22.0762 35.6859 23.1201C36.4479 23.8871 37.4129 23.5141 38.0069 22.7031C38.4615 22.0657 38.7295 21.3143 38.7809 20.5331L38.8579 19.6951C38.9579 18.5801 39.0409 17.4661 39.0639 16.3531C39.0739 15.7981 39.0689 15.2431 39.0359 14.6921C39.0192 13.879 38.8496 13.0764 38.5359 12.3261C38.4495 12.0985 38.2959 11.9025 38.0955 11.7643C37.8951 11.6261 37.6574 11.552 37.4139 11.5521C35.9799 11.6181 35.8029 13.6291 35.7409 14.7431C35.706 15.8604 35.775 16.9785 35.9469 18.0831L35.8349 18.1031C35.7269 17.5491 35.6469 16.9921 35.5879 16.4301C35.5267 15.8678 35.496 15.3026 35.4959 14.7371C35.4643 13.8698 35.6188 13.0057 35.9489 12.2031C36.0787 11.923 36.2722 11.6771 36.5139 11.4851C36.7713 11.2893 37.0826 11.1774 37.4057 11.1647C37.7288 11.152 38.048 11.2391 38.3199 11.4141C38.7954 11.8063 39.1239 12.3481 39.2519 12.9511C39.5204 14.0662 39.6438 15.2113 39.6189 16.3581C39.6249 17.4931 39.5669 18.6211 39.4959 19.7451C39.4793 20.3241 39.4191 20.9011 39.3159 21.4711C39.1351 22.3862 38.6476 23.2124 37.9339 23.8131C36.6809 24.7831 35.3089 24.2201 34.5499 22.9651C33.4819 21.1961 33.3749 19.0831 33.1629 17.0871C32.8099 12.7821 32.4379 5.64907 34.5629 1.84607C35.7399 -0.186932 37.7209 -0.497932 39.6759 0.702068C45.1299 4.36507 43.0209 21.8751 40.6279 27.2611C40.3081 28.1266 39.8151 28.9177 39.1789 29.5861C38.9188 29.8135 38.6168 29.9881 38.2899 30.1001C37.1918 30.4661 36.0639 30.7358 34.9189 30.9061C27.1269 32.1261 19.2479 32.5721 11.3869 33.0561L10.7509 33.0911L10.9729 32.5011C11.9045 30.0454 13.1369 27.7146 14.6419 25.5621C16.1759 23.4561 18.2339 21.2621 20.9759 20.9441C24.9845 20.6007 28.9659 21.8592 32.0489 24.4441C33.1088 25.2929 33.9223 26.4099 34.4049 27.6791L34.5209 28.0351L34.1499 28.0771L15.4499 30.1981L15.1849 30.2281L15.1959 29.9681C15.3196 28.7086 15.8399 27.5209 16.6819 26.5761C18.3229 24.6851 20.9009 23.9651 23.3049 23.7691C24.7699 23.6511 28.7129 23.2051 29.4769 24.7331C29.5642 24.9638 29.6032 25.21 29.5917 25.4565C29.5802 25.703 29.5183 25.9444 29.4099 26.1661C29.358 26.3201 29.2868 26.467 29.1979 26.6031C28.9964 26.8586 28.7364 27.062 28.4399 27.1961C27.8802 27.4515 27.2906 27.6353 26.6849 27.7431C24.296 28.1301 21.8736 28.2711 19.4559 28.1641H19.3659C19.3875 27.8526 19.49 27.5521 19.6632 27.2924C19.8365 27.0326 20.0746 26.8226 20.3539 26.6831C20.8502 26.3957 21.391 26.1929 21.9539 26.0831C23.064 25.8692 24.1955 25.7869 25.3249 25.8381L25.3179 25.9521Z" fill="#FEB127"/>
</svg>
