<svg width="171" height="27" viewBox="0 0 171 27" fill="none" xmlns="http://www.w3.org/2000/svg">
<path d="M170.585 10.108H4.68396V15.741H170.585V10.108Z" fill="#FEB127"/>
<path d="M26.938 13.469C26.938 16.1329 26.1481 18.737 24.6681 20.952C23.1881 23.1669 21.0845 24.8933 18.6234 25.9127C16.1622 26.9322 13.4541 27.1989 10.8413 26.6792C8.2286 26.1595 5.82866 24.8767 3.94498 22.993C2.06131 21.1093 0.778513 18.7094 0.258809 16.0967C-0.260895 13.4839 0.00583589 10.7758 1.02527 8.31464C2.04471 5.8535 3.77106 3.74993 5.98603 2.26994C8.201 0.789943 10.8051 0 13.469 0C17.0412 0 20.4671 1.41905 22.993 3.94498C25.519 6.47091 26.938 9.8968 26.938 13.469Z" fill="#FEB127"/>
<path d="M88.136 13.469C88.1362 15.2066 87.6212 16.9052 86.6559 18.3501C85.6907 19.7949 84.3187 20.921 82.7134 21.5861C81.1081 22.2511 79.3416 22.4252 77.6374 22.0862C75.9332 21.7473 74.3678 20.9106 73.1391 19.6819C71.9105 18.4533 71.0737 16.8878 70.7348 15.1836C70.3959 13.4794 70.5699 11.713 71.235 10.1077C71.9 8.50237 73.0261 7.13035 74.471 6.16512C75.9158 5.19989 77.6145 4.6848 79.352 4.685C81.6817 4.685 83.916 5.61045 85.5633 7.25777C87.2106 8.90509 88.136 11.1393 88.136 13.469" fill="#FEB127"/>
<path d="M154.018 13.469C154.018 15.2066 153.503 16.9052 152.538 18.3501C151.573 19.7949 150.201 20.921 148.595 21.5861C146.99 22.2511 145.224 22.4252 143.519 22.0862C141.815 21.7473 140.25 20.9106 139.021 19.6819C137.792 18.4533 136.956 16.8878 136.617 15.1836C136.278 13.4794 136.452 11.713 137.117 10.1077C137.782 8.50237 138.908 7.13035 140.353 6.16512C141.798 5.19989 143.496 4.6848 145.234 4.685C147.564 4.685 149.798 5.61045 151.445 7.25777C153.093 8.90509 154.018 11.1393 154.018 13.469" fill="#FEB127"/>
</svg>
