<svg width="25" height="25" viewBox="0 0 25 25" fill="none" xmlns="http://www.w3.org/2000/svg">
<path d="M20.6 3.51098C18.5391 1.4538 15.8012 0.215184 12.8955 0.0255234C9.98983 -0.164138 7.11414 0.708069 4.80336 2.47991C2.49259 4.25175 0.904039 6.8026 0.333191 9.65798C-0.237657 12.5134 0.248059 15.4789 1.7 18.003L0 24.224L6.367 22.553C8.12799 23.5124 10.1016 24.0144 12.107 24.013H12.112C15.3064 24.011 18.3709 22.7486 20.6398 20.5C22.9086 18.2513 24.1984 15.1982 24.229 12.004C24.2119 10.4193 23.8826 8.85356 23.2599 7.39626C22.6372 5.93896 21.7333 4.6187 20.6 3.51098V3.51098ZM12.106 21.989C10.3169 21.9907 8.56044 21.5105 7.021 20.599L6.659 20.382L2.883 21.372L3.889 17.689L3.651 17.311C2.85364 15.996 2.37028 14.5149 2.23852 12.9828C2.10675 11.4506 2.33012 9.90872 2.89127 8.47695C3.45241 7.04518 4.3362 5.76212 5.47393 4.72751C6.61167 3.6929 7.97269 2.93463 9.45118 2.51165C10.9297 2.08867 12.4858 2.01237 13.9986 2.28868C15.5113 2.565 16.94 3.18649 18.1735 4.10483C19.407 5.02317 20.4121 6.21363 21.1106 7.58363C21.8091 8.95364 22.1822 10.4663 22.201 12.004C22.1726 14.6624 21.0964 17.2022 19.2062 19.0718C17.316 20.9414 14.7646 21.9897 12.106 21.989V21.989ZM17.581 14.513C17.281 14.362 15.807 13.637 15.531 13.539C15.255 13.441 15.055 13.388 14.855 13.691C14.655 13.994 14.081 14.664 13.902 14.87C13.723 15.076 13.551 15.097 13.253 14.946C11.5246 14.2557 10.0837 12.9958 9.169 11.375C8.861 10.845 9.477 10.883 10.051 9.73598C10.0898 9.65312 10.1076 9.56199 10.1029 9.47061C10.0982 9.37924 10.0711 9.29042 10.024 9.21198C9.948 9.05998 9.347 7.58298 9.099 6.98298C8.851 6.38298 8.606 6.48298 8.422 6.46898C8.238 6.45498 8.049 6.45798 7.849 6.45798C7.69727 6.46238 7.54805 6.49773 7.41048 6.56187C7.27291 6.62601 7.1499 6.71759 7.049 6.83098C6.71067 7.15242 6.44274 7.54058 6.26218 7.97091C6.08161 8.40124 5.99234 8.86437 6 9.33098C6.09884 10.4623 6.52328 11.5408 7.222 12.436C8.51092 14.3651 10.2781 15.9269 12.351 16.969C14.251 17.792 15.002 17.862 15.951 17.721C16.3688 17.6364 16.7645 17.4657 17.1128 17.2198C17.461 16.974 17.7543 16.6584 17.974 16.293C18.1703 15.8442 18.2305 15.3477 18.147 14.865C18.077 14.73 17.877 14.654 17.579 14.508" fill="#F7F7F7"/>
</svg>
