<svg id="Componente_23_1" data-name="Componente 23 – 1" xmlns="http://www.w3.org/2000/svg" width="28.842" height="20.28" viewBox="0 0 28.842 20.28">
  <defs>
    <style>
      .cls-1 {
        fill: #fff;
      }
    </style>
  </defs>
  <path id="Trazado_184" data-name="Trazado 184" class="cls-1" d="M513.371,6906.1a3.622,3.622,0,0,0-2.549-2.567c-2.249-.606-11.27-.606-11.27-.606s-9.018,0-11.268.606a3.627,3.627,0,0,0-2.551,2.567,40.92,40.92,0,0,0,0,13.975,3.57,3.57,0,0,0,2.551,2.525c2.25.607,11.268.607,11.268.607s9.021,0,11.27-.607a3.565,3.565,0,0,0,2.549-2.525,40.785,40.785,0,0,0,0-13.975M497,6917.381V6908.8l7.538,4.288Z" transform="translate(-485.132 -6902.932)"/>
</svg>
