<svg width="2152" height="677" viewBox="0 0 2152 677" fill="none" xmlns="http://www.w3.org/2000/svg">
<path d="M450.53 355.877C537.655 260.6 859.654 -47.1159 1342.83 6.14797C1913.11 69 2151.13 607.858 2151.13 607.858C2151.13 607.858 2139.29 634.657 2114.57 677H1725.89C1738.15 650.513 1744.99 621.005 1744.99 589.9C1744.99 475.262 1652.05 382.321 1537.42 382.321C1422.78 382.321 1329.84 475.263 1329.84 589.9C1329.84 621.005 1336.68 650.513 1348.94 677H69.5626C78.9747 635.337 85.4722 607.859 85.4722 607.859C85.4722 607.859 -19.2958 164.794 3.15289 139.378C25.5992 113.9 74.9898 118.393 74.9898 118.393L396.91 360.861C404.864 366.855 414.768 369.665 424.684 368.744C434.601 367.822 443.817 363.234 450.53 355.877Z" fill="#ECF2F9"/>
</svg>
